<svg width="169" height="142" viewBox="0 0 169 142" fill="none" xmlns="http://www.w3.org/2000/svg">
<path d="M25.1785 62.1787C26.3592 60.7401 28.483 60.5323 29.9217 61.7129C31.3601 62.8936 31.5699 65.0165 30.3895 66.4551C24.8247 73.2361 17.3637 83.8371 12.3065 94.3603C35.0882 88.2111 50.5296 116.085 30.157 127.965C26.7264 129.027 23.4574 129.375 20.4344 129.154C26.7499 132.215 34.0645 134.168 40.9188 134.479C41.1539 134.49 41.388 134.496 41.6209 134.503C38.4137 130.912 37.9357 125.282 42.7977 122.094C49.8601 119.88 55.8218 126.231 55.4051 131.823C59.011 129.879 61.5345 126.85 62.4471 122.342C62.8807 120.199 63.1011 118.198 63.1766 116.354C62.8823 116.547 62.5758 116.734 62.2557 116.913C45.8415 121.431 34.6358 101.426 48.657 92.6924C56.1526 90.409 62.6674 93.6976 66.1043 98.6846C66.2541 98.854 66.3889 99.0412 66.5057 99.2451L66.4813 99.2578C66.4819 99.2588 66.4826 99.2597 66.4832 99.2607C66.5041 99.2491 66.5071 99.248 66.5076 99.248L66.5096 99.251C66.5107 99.2529 66.5113 99.2556 66.5125 99.2578C66.515 99.2623 66.5182 99.267 66.5213 99.2725C66.5276 99.2837 66.5351 99.2979 66.5438 99.3135C66.561 99.3446 66.5836 99.3846 66.6092 99.4326C66.643 99.496 66.6825 99.5747 66.7293 99.667C67.5411 101.057 68.1211 102.55 68.4314 104.073C68.6187 104.704 68.8037 105.393 68.9754 106.137C69.9527 110.372 70.5295 116.384 69.0535 123.678C67.7071 130.33 63.7945 134.984 58.5223 137.8C53.3649 140.554 47.0268 141.504 40.6121 141.213C27.8533 140.634 13.5351 135.08 4.92657 126.603C0.803961 122.542 -0.341466 117.026 0.0828197 111.4C0.505189 105.802 2.49561 99.6832 5.16778 93.7324C10.5235 81.8057 19.007 69.6991 25.1785 62.1787Z" fill="#1A1A1A"/>
<path d="M69.2791 22.4004C76.5692 21.8186 82.2267 23.2568 86.8768 25.6914C91.4351 28.0782 94.8945 31.3656 97.783 34.124C100.823 37.0275 103.053 39.1398 105.544 40.2441C107.722 41.2099 110.347 41.4886 114.371 39.7793C125.439 35.0773 135.374 32.463 143.394 31.7803C145.292 29.5011 148.022 27.7315 151.28 26.915C158.682 25.0602 166.003 28.8251 167.632 35.3242C168.417 38.4576 167.732 41.6524 165.986 44.331C167.611 49.6663 169.015 57.3265 168.104 65.2412C167.439 71.0243 165.522 77.0603 161.438 82.3965C157.338 87.7539 151.211 92.1994 142.475 95.0234C128.585 99.5141 120.246 100.746 110.959 101.707C115.359 108.599 119.695 115.219 122.984 120.194C124.711 122.806 126.148 124.964 127.153 126.468C127.656 127.219 128.051 127.808 128.319 128.208C128.453 128.408 128.556 128.56 128.625 128.663C128.659 128.714 128.686 128.753 128.704 128.779C128.712 128.792 128.718 128.801 128.722 128.808C128.725 128.811 128.726 128.814 128.727 128.815L128.728 128.817L125.935 130.701C123.323 132.462 123.152 132.576 123.14 132.583L123.138 132.582C123.137 132.58 123.135 132.578 123.133 132.574C123.128 132.567 123.122 132.557 123.113 132.544C123.095 132.517 123.068 132.478 123.033 132.426C122.963 132.321 122.859 132.166 122.723 131.965C122.452 131.561 122.056 130.969 121.551 130.213C120.54 128.701 119.096 126.534 117.362 123.911C113.895 118.667 109.264 111.594 104.612 104.289C99.9649 96.9912 95.2762 89.428 91.7049 83.2139C89.922 80.1116 88.3915 77.2998 87.2791 75.0039C86.7239 73.8578 86.2503 72.7953 85.8992 71.8623C85.5738 70.9976 85.254 69.9916 85.1785 69.0439C84.425 59.5697 83.9322 54.1668 82.5535 46.5918C82.1385 44.3116 81.3784 43.2261 80.7898 42.6904C80.2011 42.1547 79.4693 41.8834 78.5848 41.8066C77.9954 41.7555 77.3893 41.7983 76.8221 41.8887L76.8709 45.9424C76.893 47.8033 75.4017 49.3293 73.5408 49.3516C71.6801 49.3734 70.1539 47.8832 70.1316 46.0225L70.075 41.3594C69.8334 41.234 69.5724 41.1016 69.2977 40.9678C67.8209 40.2486 66.2712 39.6371 65.1854 39.4687C63.2254 39.1649 61.7782 39.1603 60.4754 39.3975C60.1707 39.4529 59.863 39.5242 59.5486 39.6123C60.0697 40.3828 60.5404 41.0915 60.9402 41.708C61.4137 42.4381 61.7948 43.0409 62.0584 43.4639C62.1901 43.6751 62.2924 43.8427 62.3631 43.958C62.3983 44.0154 62.4262 44.0607 62.4451 44.0918C62.4544 44.107 62.4614 44.1194 62.4666 44.1279C62.4691 44.132 62.4719 44.1352 62.4734 44.1377L62.4764 44.1435C63.4382 45.7365 62.9266 47.8083 61.3338 48.7705C59.7906 49.7024 57.7984 49.2517 56.8006 47.7744L56.7068 47.6289L56.7029 47.6221C56.6996 47.6165 56.6937 47.6068 56.6863 47.5947C56.6713 47.57 56.6488 47.5317 56.618 47.4814C56.5555 47.3796 56.4611 47.2267 56.3387 47.0303C56.0936 46.6371 55.7348 46.0681 55.2859 45.376C54.9025 44.7847 54.4519 44.1066 53.9549 43.3721C52.6016 44.9467 52.1459 46.0962 52.0809 47.0088C51.9842 48.3672 52.6676 50.369 55.7059 53.8623C57.2637 55.6534 58.6289 57.2911 59.8328 58.8232C65.0391 65.4484 70.0347 69.4254 73.7107 78.2549C75.0872 81.561 80.2841 95.7343 85.0877 108.94C87.5008 115.574 89.8305 122.007 91.5564 126.781C92.4193 129.168 93.1303 131.141 93.6268 132.517C93.875 133.204 94.0697 133.744 94.202 134.11C94.2681 134.294 94.3192 134.435 94.3533 134.529C94.3702 134.576 94.3828 134.612 94.3914 134.636C94.3957 134.648 94.399 134.657 94.4012 134.663C94.4022 134.666 94.4035 134.668 94.4041 134.67L94.4051 134.672C95.036 136.423 94.1277 138.354 92.3768 138.985C90.6259 139.616 88.6942 138.708 88.0633 136.957V136.955C88.0628 136.954 88.0623 136.951 88.0613 136.948C88.0592 136.942 88.0549 136.933 88.0506 136.921C88.042 136.897 88.0293 136.861 88.0125 136.814C87.9785 136.72 87.929 136.579 87.8631 136.396C87.731 136.03 87.5359 135.492 87.2879 134.805C86.7918 133.43 86.0799 131.459 85.2176 129.073C83.4926 124.302 81.1647 117.873 78.7537 111.245C73.909 97.9259 68.7875 83.9658 67.4881 80.8447C64.2805 73.1407 60.6848 70.8158 54.533 62.9873C53.415 61.5645 52.1244 60.015 50.6199 58.2851C47.3664 54.5444 45.0596 50.7382 45.3592 46.5303C45.6589 42.3223 48.4814 38.8807 52.2322 35.6387L52.4871 35.4189L52.7801 35.2549C54.9468 34.0319 57.0169 33.1764 59.2684 32.7666C61.5201 32.3568 63.7597 32.4274 66.2186 32.8086C68.361 33.1408 70.6719 34.1407 72.2479 34.9082C72.8105 35.1822 73.3205 35.4501 73.7508 35.6816C73.9045 35.6371 74.0677 35.5927 74.2381 35.5488C75.4624 35.2335 77.2309 34.9227 79.1678 35.0908C81.138 35.2619 83.3899 35.9431 85.327 37.706C87.2642 39.4693 88.5738 42.0304 89.1844 45.3848C90.6276 53.3143 91.1402 59.0019 91.8963 68.5088C91.8939 68.4767 91.9314 68.7537 92.2078 69.4883C92.4598 70.1578 92.8367 71.0191 93.3436 72.0654C94.3557 74.1546 95.7976 76.8093 97.5477 79.8545C100.192 84.4561 103.483 89.8484 106.933 95.3496C107.023 95.3335 107.114 95.3205 107.206 95.3115C117.572 94.2962 125.624 93.3879 140.402 88.6103C147.996 86.1553 152.916 82.442 156.086 78.2998C159.272 74.1363 160.849 69.3306 161.409 64.4707C162.041 58.9779 161.354 53.5657 160.345 49.2851C159.36 49.7745 158.3 50.1699 157.178 50.4512C149.776 52.3057 142.456 48.5407 140.827 42.042C140.565 40.9964 140.467 39.9434 140.516 38.9053C133.979 39.8837 126.001 42.1605 117.007 45.9814C111.494 48.3236 106.911 48.2223 102.812 46.4053C99.0264 44.7267 95.908 41.6531 93.1277 38.998C90.1954 36.1977 87.3607 33.5522 83.7508 31.6621C80.2323 29.8199 75.8455 28.6371 69.8162 29.1182C56.9587 30.1443 48.3791 33.7628 43.1961 38.3623C38.0906 42.8931 36.0596 48.5538 36.5145 54.3994C36.6588 56.2549 35.2713 57.8771 33.4158 58.0215C31.5606 58.1656 29.9402 56.7781 29.7957 54.9228C29.1784 46.9921 32.0239 39.2647 38.7225 33.3203C45.3437 27.4446 55.4969 23.5004 69.2791 22.4004Z" fill="#1A1A1A"/>
<path d="M128.729 128.818C129.769 130.362 129.361 132.455 127.818 133.495C126.275 134.535 124.181 134.126 123.14 132.583L125.935 130.701L128.729 128.818Z" fill="#1A1A1A"/>
<path d="M31.5984 83.5361C38.5138 81.368 43.9369 90.8296 37.9236 94.3662C30.9194 96.3444 25.7063 87.3994 31.5984 83.5361Z" fill="#1A1A1A"/>
<path d="M148.692 64.624C150.543 64.4256 152.204 65.7647 152.402 67.6152C152.6 69.4655 151.261 71.1266 149.411 71.3252C146.477 71.6397 144.689 72.3343 143.59 73.0478C142.537 73.7313 141.962 74.5308 141.596 75.3887C141.202 76.3122 141.02 77.3771 140.912 78.624C140.853 79.3085 140.832 79.7887 140.778 80.5137C140.732 81.1281 140.663 81.8732 140.506 82.585C140.103 84.4018 138.304 85.5488 136.487 85.1465C134.67 84.7438 133.524 82.944 133.927 81.1269C133.973 80.9194 134.013 80.585 134.056 80.0098C134.091 79.5446 134.138 78.7226 134.197 78.0439C134.325 76.5643 134.581 74.6544 135.396 72.7441C136.239 70.7681 137.645 68.8726 139.92 67.3955C142.148 65.9487 145.035 65.0161 148.692 64.624Z" fill="#1A1A1A"/>
<path d="M50.199 4.04101C50.3742 2.18833 52.0182 0.828043 53.8709 1.00292C55.7236 1.17805 57.0838 2.82214 56.909 4.6748C56.3925 10.1401 54.8377 14.8723 52.0584 18.584C49.2459 22.3398 45.3433 24.8284 40.5711 26.0244C38.7659 26.4768 36.9348 25.3803 36.4822 23.5752C36.0301 21.77 37.1273 19.9398 38.9324 19.4873C42.3321 18.6353 44.8552 16.958 46.6629 14.5439C48.5038 12.0855 49.7642 8.64225 50.199 4.04101Z" fill="#1A1A1A"/>
<path d="M75.3641 0.575186C76.9073 -0.464543 79.0007 -0.0557874 80.0408 1.4873C80.7268 2.50443 83.6113 5.35811 88.1941 5.88866C90.0428 6.10272 91.3689 7.7754 91.1551 9.62401C90.941 11.4728 89.2675 12.7989 87.4188 12.585C80.5403 11.7886 76.0315 7.59466 74.4529 5.25292C73.4129 3.70966 73.8209 1.61538 75.3641 0.575186Z" fill="#1A1A1A"/>
</svg>
