<svg width="200" height="155" viewBox="0 0 200 155" fill="none" xmlns="http://www.w3.org/2000/svg">
<path d="M26.7373 71.6494C27.8188 70.1351 29.9229 69.7841 31.4375 70.8652C32.9522 71.9467 33.3041 74.0517 32.2227 75.5664C27.1259 82.7052 20.3943 93.7819 16.0547 104.62C38.3698 96.9619 55.6429 123.734 36.1153 136.953C32.7654 138.243 29.5287 138.809 26.4991 138.792C33.0054 141.422 40.4337 142.88 47.293 142.73C47.5278 142.725 47.7618 142.715 47.9942 142.706C44.554 139.338 43.6994 133.754 48.336 130.247C55.2341 127.564 61.6089 133.5 61.5684 139.108C65.0362 136.927 67.3511 133.735 67.959 129.175C68.2479 127.008 68.3336 124.996 68.2852 123.151C68.0039 123.363 67.7104 123.571 67.4024 123.772C51.3283 129.382 38.8054 110.174 52.209 100.519C59.532 97.7383 66.2511 100.579 70.0157 105.321C70.1783 105.481 70.3266 105.661 70.458 105.858L70.4346 105.873L70.4356 105.876C70.4562 105.863 70.46 105.86 70.46 105.86L70.4619 105.864L70.4756 105.885C70.4827 105.896 70.4914 105.909 70.501 105.924C70.5203 105.954 70.5455 105.992 70.5742 106.038C70.6154 106.104 70.664 106.188 70.7227 106.287C71.615 107.608 72.2873 109.045 72.6973 110.529C72.9285 111.151 73.1616 111.831 73.3848 112.568C74.6442 116.728 75.6239 122.689 74.6407 130.065C73.7437 136.793 70.1515 141.699 65.0801 144.862C60.1193 147.957 53.86 149.33 47.4405 149.47C34.6715 149.748 20.0126 145.168 10.8545 137.287C6.46845 133.513 4.95521 128.085 5.001 122.444C5.04664 116.83 6.62189 110.591 8.8887 104.475C13.4319 92.2154 21.0844 79.5671 26.7373 71.6494Z" fill="#1A1A1A"/>
<path fill-rule="evenodd" clip-rule="evenodd" d="M138.647 87.2842C138.647 87.2842 138.649 87.2847 138.651 87.2842L138.655 87.2822C138.651 87.2832 138.647 87.2842 138.647 87.2842ZM138.663 87.2813L138.665 87.2803H138.661L138.663 87.2813Z" fill="#1A1A1A"/>
<path d="M171.091 111.511C171.663 109.74 173.562 108.768 175.333 109.34C177.104 109.912 178.076 111.811 177.504 113.582L176.366 117.11C175.794 118.88 173.894 119.853 172.123 119.281C170.352 118.709 169.38 116.809 169.952 115.038L171.091 111.511Z" fill="#1A1A1A"/>
<path d="M177.967 87.6268C180.231 86.7292 183.898 85.7213 187.201 86.1051C188.901 86.3025 190.874 86.9145 192.384 88.4984C193.958 90.1482 194.562 92.3559 194.44 94.7621C194.291 97.7024 193.245 99.9913 191.429 101.63C189.757 103.138 187.721 103.818 186.202 104.245C184.389 104.755 183.449 104.905 182.487 105.31C182.104 105.471 181.933 105.597 181.866 105.658C181.83 105.691 181.82 105.705 181.801 105.763C181.229 107.533 179.329 108.505 177.558 107.933C175.787 107.361 174.815 105.462 175.387 103.691C176.221 101.108 178.184 99.8077 179.874 99.0968C181.339 98.481 183.333 98.0512 184.378 97.7573C185.717 97.381 186.463 97.0342 186.914 96.6272C187.22 96.3512 187.637 95.8362 187.709 94.4215C187.737 93.8686 187.673 93.5414 187.62 93.3727C187.572 93.2204 187.525 93.1683 187.508 93.1506C187.468 93.1087 187.222 92.8922 186.424 92.7994C184.732 92.6029 182.289 93.165 180.451 93.8936C178.721 94.579 176.762 93.732 176.076 92.0023C175.39 90.2721 176.237 88.3127 177.967 87.6268Z" fill="#1A1A1A"/>
<path d="M34.5703 92.5274C41.3245 89.9001 47.3707 98.977 41.6084 102.909C34.7527 105.353 28.9508 96.7774 34.5703 92.5274Z" fill="#1A1A1A"/>
<path d="M148.642 65.0547C152.232 64.8928 155.532 65.371 157.58 65.8994C159.382 66.3645 160.466 68.2029 160.001 70.0049C159.536 71.8067 157.698 72.8907 155.897 72.4258C154.462 72.0556 151.831 71.658 148.945 71.7881C146.035 71.9194 143.21 72.5713 141.084 73.9883C139.535 75.0206 137.444 74.6023 136.411 73.0537C135.379 71.5052 135.797 69.4132 137.346 68.3809C140.881 66.0238 145.076 65.2155 148.642 65.0547Z" fill="#1A1A1A"/>
<path d="M62.7627 48.7451C65.98 47.2776 70.3412 49.9316 72.5039 54.6729C74.6665 59.414 73.8119 64.4465 70.5948 65.9141C67.3775 67.3816 63.0163 64.7284 60.8535 59.9873C58.6909 55.2462 59.5457 50.2128 62.7627 48.7451Z" fill="#1A1A1A"/>
<path d="M84.1153 5.45997C87.0772 4.65166 90.3265 4.83857 93.5342 6.57911C96.6535 8.27184 99.4846 11.2953 102.032 15.708C102.963 17.3198 102.411 19.381 100.799 20.3115C99.1871 21.242 97.1259 20.6899 96.1953 19.0781C94.0253 15.3196 91.9844 13.4064 90.3194 12.5029C88.7425 11.6473 87.2946 11.5785 85.8897 11.9619C82.7591 12.8163 79.6404 16.0146 77.7276 19.1484C76.758 20.7371 74.6834 21.2391 73.0948 20.2695C71.5064 19.3 71.0044 17.2262 71.9737 15.6377C74.2171 11.962 78.5124 6.98902 84.1153 5.45997Z" fill="#1A1A1A"/>
<path d="M138.651 87.2842C138.649 87.2847 138.647 87.2842 138.647 87.2842C138.647 87.2842 138.651 87.2832 138.655 87.2822L138.651 87.2842Z" fill="#FAFAF8"/>
<path d="M138.663 87.2813L138.661 87.2803H138.665L138.663 87.2813Z" fill="#FAFAF8"/>
<path fill-rule="evenodd" clip-rule="evenodd" d="M82.799 0.636306C86.9148 -0.486854 91.5006 -0.213373 95.9191 2.18416L96.3107 2.40291C100.331 4.70463 103.623 8.46348 106.362 13.2076C108.601 17.0856 107.384 22.0111 103.666 24.4166L103.299 24.6412C99.2962 26.9521 94.1769 25.5813 91.8654 21.5777C89.9763 18.3058 88.5215 17.2154 87.9347 16.897C87.6782 16.7579 87.5526 16.7437 87.5246 16.7408C87.4922 16.7374 87.4035 16.7319 87.2062 16.7857C86.689 16.9269 85.8148 17.3876 84.7384 18.3785C83.7038 19.3309 82.7339 20.5434 81.9953 21.7535C81.4796 22.5982 80.837 23.3179 80.1086 23.9058C88.3584 26.0898 94.3204 30.7816 98.8595 34.3248C102.626 37.2649 104.712 38.8078 106.691 39.523C107.932 39.9716 109.322 40.1902 111.962 38.8531C123.668 32.9232 134.496 29.3472 143.448 28.2242C145.443 26.497 147.834 25.1275 150.516 24.2603C159.804 21.2574 170.598 25.2075 173.691 34.772C175.078 39.0628 174.497 43.4404 172.624 47.1588C174.286 52.0009 175.725 57.9791 175.843 64.3033C175.958 70.5055 174.202 77.7782 172.172 84.9026C173.789 84.2852 174.695 83.5455 176.125 82.9786L176.632 82.7833C179.189 81.8278 183.277 80.7243 187.356 81.0944L187.779 81.1383L188.231 81.1975C190.545 81.5329 193.561 82.4875 196.003 85.0474L196.256 85.3213C198.817 88.1744 199.599 91.7377 199.433 95.0142C199.227 99.0821 197.718 102.69 194.779 105.342C192.205 107.664 189.214 108.592 187.555 109.058C186.649 109.313 185.858 109.507 185.375 109.632C184.647 110.638 183.713 111.456 182.652 112.044C182.705 112.92 182.623 113.817 182.385 114.706L182.263 115.118L181.124 118.646C179.703 123.044 174.986 125.459 170.587 124.04L170.585 124.039C166.186 122.618 163.774 117.898 165.194 113.501L166.333 109.974C167.013 107.871 168.447 106.222 170.238 105.229C170.177 104.217 170.298 103.176 170.629 102.154C171.332 99.976 172.5 98.3504 173.789 97.1382C172.776 96.2788 171.952 95.166 171.429 93.8453C170.979 92.7104 170.187 89.0479 170.238 87.9026C165.194 92.1506 164.172 93.3727 156.233 97.3961C156.053 102.547 155.613 107.225 154.957 113.717C154.948 113.813 154.934 114.197 155.011 114.959C155.084 115.682 155.225 116.607 155.448 117.723C155.884 119.895 156.542 122.364 157.261 124.765C157.973 127.145 160.711 133.346 161.274 134.96C161.554 135.764 161.787 136.414 161.948 136.855C162.027 137.069 162.088 137.235 162.133 137.356C162.15 137.403 162.166 137.444 162.176 137.473C162.178 137.48 162.181 137.487 162.184 137.495L162.186 137.499L162.192 137.514L162.193 137.517C162.193 137.517 162.191 137.513 162.19 137.51L162.188 137.507C163.82 141.83 162.193 145.403 158.173 147.403C154.153 149.403 153.013 146.515 145.278 146.903C137.542 147.291 136.814 149.903 133.173 149.403C129.532 148.903 126.973 147.952 125.644 144.459L125.15 142.425L125.149 142.422C125.148 142.42 125.149 142.416 125.149 142.414C125.148 142.409 125.094 141.957 125.094 141.953C125.056 141.634 125 141.166 124.928 140.586C124.784 139.421 124.578 137.807 124.332 136.008C123.828 132.326 121.191 124.148 120.592 121.397C119.664 117.139 118.433 115.073 116.199 111.323C104.832 115.554 94.1851 116.314 81.9006 114.779C80.8067 114.642 79.7894 114.297 78.881 113.794C79.9166 118.257 80.4956 123.983 79.5968 130.726C78.4876 139.046 73.9628 145.214 67.7267 149.104C61.7635 152.824 54.5349 154.316 47.55 154.468C33.7558 154.769 17.8339 149.889 7.59294 141.077C1.6977 136.004 -0.0515268 128.899 0.00114764 122.404C0.0535008 115.968 1.83829 109.111 4.20037 102.737C8.94769 89.927 16.8586 76.8808 22.6681 68.7437L22.9279 68.399C23.8078 67.2903 24.9196 66.4608 26.1437 65.9303C24.438 60.5526 23.7677 55.1849 24.6564 50.0142C25.5802 44.6411 28.1005 39.9982 31.926 36.2017C36.7193 31.4451 43.3585 28.2028 51.1125 25.9674C50.4982 22.5879 52.0175 19.0387 55.1623 17.2222L55.1633 17.2213C59.0412 14.9826 63.1893 16.7333 66.3722 19.9176C67.3381 20.8838 68.422 22.7525 68.422 22.7525C68.422 22.7525 65.789 16.1734 67.7052 13.0328C70.1929 8.95703 75.361 2.66619 82.799 0.636306ZM31.4375 70.8652C29.9229 69.7841 27.8188 70.1351 26.7373 71.6494C21.0844 79.5671 13.4319 92.2154 8.8887 104.475C6.62189 110.591 5.04664 116.83 5.001 122.444C4.95521 128.085 6.46845 133.513 10.8545 137.287C20.0126 145.168 34.6715 149.748 47.4405 149.47C53.86 149.33 60.1193 147.957 65.0801 144.862C70.1515 141.699 73.7437 136.793 74.6407 130.065C75.6239 122.689 74.6442 116.728 73.3848 112.568C73.1616 111.831 72.9285 111.151 72.6973 110.529C72.2873 109.045 71.615 107.608 70.7227 106.287C70.664 106.188 70.6154 106.104 70.5742 106.038C70.5455 105.992 70.5203 105.954 70.501 105.924C70.4914 105.909 70.4827 105.896 70.4756 105.885L70.4619 105.864L70.46 105.86C70.46 105.86 70.4562 105.863 70.4356 105.876L70.4346 105.873L70.458 105.858C70.3266 105.661 70.1783 105.481 70.0157 105.321C66.2511 100.579 59.532 97.7383 52.209 100.519C38.8054 110.174 51.3283 129.382 67.4024 123.772C67.7104 123.571 68.0039 123.363 68.2852 123.151C68.3336 124.996 68.2479 127.008 67.959 129.175C67.3511 133.735 65.0362 136.927 61.5684 139.108C61.6089 133.5 55.2341 127.564 48.336 130.247C43.6994 133.754 44.554 139.338 47.9942 142.706C47.7618 142.715 47.5278 142.725 47.293 142.73C40.4337 142.88 33.0054 141.422 26.4991 138.792C29.5287 138.809 32.7654 138.243 36.1153 136.953C55.6429 123.734 38.3698 96.9619 16.0547 104.62C20.3943 93.7819 27.1259 82.7052 32.2227 75.5664C33.3041 74.0517 32.9522 71.9467 31.4375 70.8652ZM62.2666 22.7852C61.336 21.1735 59.2748 20.6213 57.6631 21.5518C56.0518 22.4823 55.4997 24.5427 56.4297 26.1543C57.0295 27.1932 57.324 28.3261 57.3321 29.544C47.7642 31.6764 40.296 34.9402 35.4483 39.751C32.3207 42.8548 30.3222 46.5672 29.584 50.8613C28.8542 55.1073 29.3886 59.7237 30.9815 64.6504C31.5542 66.421 33.4539 67.3928 35.2246 66.8203C36.9953 66.2478 37.9667 64.3479 37.3946 62.5772C36.0359 58.3749 35.7301 54.8913 36.2266 52.0029C36.7148 49.1631 38.01 46.7048 40.1963 44.5352C43.1774 41.5768 47.8659 39.1113 54.4571 37.2217C51.9913 40.8756 48.477 44.1191 45.8946 46.0176C44.395 47.1199 44.0736 49.2299 45.1758 50.7295C46.2783 52.2287 48.3873 52.5505 49.8867 51.4482C53.0959 49.0891 57.5847 44.9522 60.6358 40.084C61.5533 38.62 62.3882 37.0011 63.0078 35.2861C64.0411 35.1038 65.107 34.9309 66.2051 34.7686C74.851 33.4903 80.8614 35.9913 86.1719 39.5391C84.7695 41.8085 84.731 45.443 86.3174 48.9209C88.4801 53.662 92.8414 56.316 96.0586 54.8486C98.0579 53.9367 99.1437 51.6474 99.1612 48.9072C100.303 49.5546 101.481 50.1229 102.7 50.5635C107.098 52.1529 111.849 52.0712 117.268 49.3262C126.873 44.4602 135.374 41.5467 142.181 40.2979C142.018 41.7943 142.158 43.3219 142.64 44.8115C144.701 51.1867 152.258 54.452 159.519 52.1045C160.251 51.8677 160.951 51.5812 161.618 51.2539C162.929 55.1415 164.017 59.7831 164.105 64.5215C164.194 69.2639 163.28 73.9512 160.735 78.0889C158.696 81.4045 155.499 84.5465 150.567 87.1123C150.197 86.0611 149.694 85.1174 149.059 84.2852C147.559 82.3228 145.587 81.3142 143.801 80.8262C142.047 80.347 140.372 80.3375 139.202 80.4219C139.083 80.4305 138.967 80.4407 138.855 80.4512C138.524 80.1885 138.14 79.889 137.717 79.5781C136.424 78.6289 134.483 77.3306 132.569 76.667C130.404 75.916 128.371 75.4785 126.241 75.4785C124.111 75.4786 122.08 75.9161 119.915 76.667L119.597 76.7764L119.307 76.9482C115.398 79.2527 112.209 81.9323 111.222 85.7813C110.234 89.6305 111.739 93.5155 114.056 97.417C114.409 98.0125 114.744 98.5868 115.063 99.1406C104.501 103.672 95.0801 104.594 83.3565 103.129C81.5099 102.898 79.8256 104.209 79.5948 106.056C79.3642 107.902 80.6741 109.586 82.5205 109.817C95.5305 111.444 106.311 110.347 118.331 105.067C121.75 111.08 124.07 113.872 125.478 120.333C126.123 123.294 128.782 131.644 129.286 135.33C129.536 137.157 129.744 138.793 129.89 139.972C129.963 140.56 130.02 141.035 130.059 141.361C130.078 141.524 130.093 141.652 130.103 141.736C130.108 141.779 130.112 141.811 130.114 141.832C130.115 141.842 130.117 141.85 130.117 141.855V141.861L130.118 141.862C130.332 143.711 132.003 145.036 133.852 144.823C135.7 144.61 137.027 142.939 136.814 141.09L136.813 141.088C136.813 141.088 136.812 141.083 136.812 141.08C136.811 141.074 136.811 141.065 136.81 141.054C136.807 141.031 136.802 140.996 136.797 140.952C136.786 140.863 136.772 140.732 136.752 140.564C136.712 140.229 136.653 139.745 136.579 139.145C136.431 137.944 136.219 136.278 135.964 134.416C135.458 130.724 132.769 122.143 132.063 118.898C130.194 110.321 126.311 105.853 122.752 99.1152C121.919 97.5381 120.959 95.8406 119.852 93.9756C117.703 90.3563 117.473 88.5382 117.75 87.4561C117.923 86.7811 118.408 85.9496 119.627 84.9014C119.889 85.5022 120.128 86.0588 120.334 86.5537C120.623 87.2464 120.852 87.8145 121.007 88.2061C121.084 88.4017 121.143 88.5543 121.183 88.6553C121.202 88.7051 121.217 88.7423 121.227 88.7666C121.231 88.7783 121.234 88.7875 121.236 88.793C121.237 88.7953 121.238 88.7988 121.238 88.7988L121.304 88.96C122.021 90.5919 123.901 91.3917 125.586 90.751C127.271 90.1103 128.144 88.2646 127.596 86.5684L127.539 86.4043L127.536 86.3984C127.535 86.3959 127.534 86.3927 127.532 86.3887C127.529 86.38 127.525 86.3671 127.519 86.3516C127.507 86.3203 127.488 86.2753 127.466 86.2178C127.421 86.1022 127.356 85.9345 127.272 85.7227C127.104 85.2985 126.86 84.6926 126.554 83.958C126.338 83.4412 126.088 82.8592 125.814 82.2285C125.958 82.2215 126.101 82.2178 126.242 82.2178C127.408 82.2178 128.672 82.4488 130.36 83.0342C131.263 83.3473 132.524 84.1269 133.729 85.0107C133.899 85.1359 134.062 85.2597 134.217 85.3779L133.535 89.3965C133.224 91.2313 134.458 92.9706 136.293 93.2822C138.128 93.5937 139.867 92.3593 140.179 90.5244L140.754 87.1338C141.179 87.157 141.613 87.2159 142.024 87.3281C142.76 87.529 143.311 87.8624 143.703 88.376C144.095 88.8895 144.587 89.9199 144.587 91.9863C144.587 98.9948 144.149 103.912 143.277 112.537C143.056 114.728 143.42 117.448 143.938 120.03C144.471 122.695 145.24 125.546 146.014 128.132C146.79 130.726 149.586 137.1 150.187 138.823C150.487 139.686 150.74 140.39 150.919 140.88C151.008 141.124 151.08 141.316 151.129 141.447C151.153 141.513 151.171 141.565 151.185 141.6C151.191 141.617 151.197 141.631 151.2 141.641C151.202 141.645 151.204 141.649 151.205 141.651L151.206 141.656L151.207 141.657C151.865 143.398 153.809 144.276 155.55 143.618C157.291 142.96 158.169 141.014 157.511 139.273C157.511 139.273 157.509 139.269 157.508 139.266C157.505 139.259 157.501 139.248 157.495 139.233C157.484 139.204 157.468 139.158 157.446 139.099C157.402 138.979 157.335 138.8 157.251 138.569C157.082 138.107 156.84 137.434 156.552 136.605C155.973 134.946 153.21 128.671 152.471 126.199C151.728 123.719 151.023 121.088 150.546 118.706C150.052 116.242 149.868 114.35 149.982 113.215C150.766 105.462 151.222 100.481 151.31 94.2344C158.474 91.0325 163.371 86.6693 166.477 81.6191C169.861 76.1146 170.949 70.0712 170.844 64.3965C170.721 57.7937 168.979 51.4858 167.117 46.6357C169.285 43.596 170.076 39.8471 168.933 36.3106C166.871 29.9355 159.314 26.6701 152.054 29.0176C149.501 29.8429 147.326 31.2541 145.667 33.0117C145.428 33.0336 145.187 33.0581 144.945 33.084C136.598 33.9793 126.007 37.3432 114.222 43.3135C110.398 45.2507 107.576 45.1599 104.991 44.2256C102.107 43.1833 99.3543 41.0542 95.7832 38.2666C88.8451 32.8508 79.9474 25.9235 65.2178 28.1016C64.8172 28.1608 64.4194 28.221 64.0244 28.2832C63.8576 26.4547 63.3166 24.6038 62.2666 22.7852ZM175.333 109.34C173.562 108.768 171.663 109.74 171.091 111.511L169.952 115.038C169.38 116.809 170.352 118.709 172.123 119.281C173.894 119.853 175.794 118.88 176.366 117.11L177.504 113.582C178.076 111.811 177.104 109.912 175.333 109.34ZM187.201 86.1051C183.898 85.7213 180.231 86.7292 177.967 87.6268C176.237 88.3127 175.39 90.2721 176.076 92.0023C176.762 93.732 178.721 94.579 180.451 93.8936C182.289 93.165 184.732 92.6029 186.424 92.7994C187.22 92.8919 187.467 93.1079 187.508 93.1506C187.525 93.1683 187.572 93.2204 187.62 93.3727C187.673 93.5414 187.737 93.8686 187.709 94.4215C187.637 95.8362 187.22 96.3512 186.914 96.6272C186.463 97.0342 185.717 97.381 184.378 97.7573C183.333 98.0512 181.339 98.481 179.874 99.0968C178.184 99.8077 176.221 101.108 175.387 103.691C174.815 105.462 175.787 107.361 177.558 107.933C179.329 108.505 181.229 107.533 181.801 105.763C181.82 105.705 181.83 105.691 181.866 105.658C181.933 105.597 182.104 105.471 182.487 105.31C183.449 104.905 184.389 104.755 186.202 104.245C187.721 103.818 189.757 103.138 191.429 101.63C193.245 99.9913 194.291 97.7024 194.44 94.7621C194.562 92.3559 193.958 90.1482 192.384 88.4984C190.874 86.9145 188.901 86.3025 187.201 86.1051ZM34.5703 92.5274C41.3245 89.9001 47.3707 98.977 41.6084 102.909C34.7527 105.353 28.9508 96.7774 34.5703 92.5274ZM157.58 65.8994C155.532 65.371 152.232 64.8928 148.642 65.0547C145.076 65.2155 140.881 66.0238 137.346 68.3809C135.797 69.4132 135.379 71.5052 136.411 73.0537C137.444 74.6023 139.535 75.0206 141.084 73.9883C143.21 72.5713 146.035 71.9194 148.945 71.7881C151.831 71.658 154.462 72.0556 155.897 72.4258C157.698 72.8907 159.536 71.8067 160.001 70.0049C160.466 68.2029 159.382 66.3645 157.58 65.8994ZM72.5039 54.6729C70.3412 49.9316 65.98 47.2776 62.7627 48.7451C59.5457 50.2128 58.6909 55.2462 60.8535 59.9873C63.0163 64.7284 67.3775 67.3816 70.5948 65.9141C73.8119 64.4465 74.6665 59.414 72.5039 54.6729ZM93.5342 6.57911C90.3265 4.83857 87.0772 4.65166 84.1153 5.45997C78.5124 6.98902 74.2171 11.962 71.9737 15.6377C71.0044 17.2262 71.5064 19.3 73.0948 20.2695C74.6834 21.2391 76.758 20.7371 77.7276 19.1484C79.6404 16.0146 82.7591 12.8163 85.8897 11.9619C87.2946 11.5785 88.7425 11.6473 90.3194 12.5029C91.9844 13.4064 94.0253 15.3196 96.1953 19.0781C97.1259 20.6899 99.1871 21.242 100.799 20.3115C102.411 19.381 102.963 17.3198 102.032 15.708C99.4846 11.2953 96.6535 8.27184 93.5342 6.57911Z" fill="#FAFAF8"/>
</svg>
