<svg width="335" height="80" viewBox="0 0 335 80" fill="none" xmlns="http://www.w3.org/2000/svg">
<path d="M85.7461 5.16797C86.625 5.37891 87.2402 5.67773 87.5918 6.06445C87.9434 6.41602 88.1191 6.96094 88.1191 7.69922C88.1191 8.4375 87.6973 9.08789 86.8535 9.65039C86.0449 10.1777 85.0781 10.4414 83.9531 10.4414C80.1562 11.3906 77.8359 12.2871 76.9922 13.1309L76.043 15.4512L98.2441 69.6094C107.877 44.4375 115.119 25.5762 119.971 13.0254C119.971 12.0762 119.25 11.4609 117.809 11.1797C116.402 10.8633 114.979 10.5996 113.537 10.3887C112.131 10.1777 111.428 9.66797 111.428 8.85938C111.428 7.62891 111.797 6.75 112.535 6.22266C113.309 5.69531 114.082 5.30859 114.855 5.0625C115.629 4.81641 116.367 4.64062 117.07 4.53516C117.773 4.42969 118.652 4.3418 119.707 4.27148C121.289 4.16602 122.941 4.11328 124.664 4.11328C126.422 4.11328 127.74 4.13086 128.619 4.16602C129.498 4.16602 130.57 4.20117 131.836 4.27148C133.137 4.30664 134.191 4.41211 135 4.58789C135.844 4.72852 136.67 4.9043 137.479 5.11523C139.131 5.53711 139.957 6.25781 139.957 7.27734C139.957 8.26172 139.553 9.03516 138.744 9.59766C137.971 10.1602 137.039 10.4414 135.949 10.4414C131.906 11.3555 129.498 12.2695 128.725 13.1836L105.416 71.1914C104.572 73.2656 103.395 75.1113 101.883 76.7285C100.406 78.3105 98.5781 79.1016 96.3984 79.1016C94.2188 79.1016 92.3906 78.3105 90.9141 76.7285C89.4727 75.1465 88.1191 72.8262 86.8535 69.7676L70.2949 29.7422L53.6309 71.1914C51.5215 76.4648 48.5508 79.1016 44.7188 79.1016C41.5195 79.1016 38.9355 77.1855 36.9668 73.3535C36.4746 72.4395 35.9121 71.2441 35.2793 69.7676L11.707 13.3418C10.8984 12.3574 9.26367 11.6367 6.80273 11.1797C4.3418 10.6875 2.60156 10.1602 1.58203 9.59766C0.527344 9 0 8.34961 0 7.64648C0 6.9082 0.193359 6.3457 0.580078 5.95898C0.966797 5.57227 1.58203 5.27344 2.42578 5.0625C3.26953 4.85156 4.06055 4.67578 4.79883 4.53516C5.57227 4.39453 6.62695 4.28906 7.96289 4.21875C10.1426 4.14844 11.7773 4.11328 12.8672 4.11328H14.7129C19.7402 4.11328 22.9395 4.28906 24.3105 4.64062C25.7168 4.95703 26.8418 5.27344 27.6855 5.58984C29.373 6.25781 30.2871 7.34766 30.4277 8.85938C30.3574 9.31641 29.7246 9.7207 28.5293 10.0723C27.334 10.4238 26.1562 10.793 24.9961 11.1797C23.8711 11.5664 23.3086 12.0586 23.3086 12.6562L46.6172 69.6094L65.9707 19.1953L63.5977 13.4473C63.0352 12.7441 62.2617 12.2344 61.2773 11.918C60.3281 11.6016 59.6602 11.3906 59.2734 11.2852C57.5508 10.7227 56.1621 10.3711 55.1074 10.2305C54.0527 10.0898 53.2617 9.82617 52.7344 9.43945C52.207 9.01758 51.9434 8.20898 51.9434 7.01367C51.9434 5.7832 53.3145 5.00977 56.0566 4.69336C58.834 4.3418 62.4023 4.16602 66.7617 4.16602C71.1211 4.16602 73.8984 4.18359 75.0938 4.21875C76.3242 4.21875 77.7656 4.25391 79.418 4.32422C81.0703 4.35938 82.3184 4.44727 83.1621 4.58789C84.0059 4.72852 84.8672 4.92188 85.7461 5.16797Z" fill="#1A1A1A"/>
<path d="M135.898 44.7188C134.598 44.7188 133.121 44.209 131.469 43.1895C129.852 42.1348 129.043 40.7812 129.043 39.1289C129.043 37.4414 129.518 35.8594 130.467 34.3828C131.416 32.9062 132.646 31.7109 134.158 30.7969C135.67 29.8477 137.428 29.0566 139.432 28.4238C143.088 27.2637 147.025 26.6836 151.244 26.6836C158.346 26.6836 163.496 28.2656 166.695 31.4297C169.93 34.5586 171.547 39.7441 171.547 46.9863L171.494 62.543C171.494 66.3047 171.969 68.6602 172.918 69.6094C173.164 69.8555 173.938 70.1719 175.238 70.5586C178.824 71.6836 180.617 72.5449 180.617 73.1426C180.617 76.834 176.838 78.6797 169.279 78.6797C166.432 78.6797 164.568 78.0469 163.689 76.7812C162.846 75.5156 162.389 73.2129 162.318 69.873C160.736 72.7207 158.328 75.0234 155.094 76.7812C151.859 78.5391 148.396 79.418 144.705 79.418C141.014 79.418 137.885 78.9434 135.318 77.9941C132.752 77.0449 130.66 75.5156 129.043 73.4062C127.461 71.2617 126.67 68.959 126.67 66.498C126.67 64.0371 126.951 62.0684 127.514 60.5918C128.076 59.0801 128.779 57.8145 129.623 56.7949C130.467 55.7754 131.609 54.8613 133.051 54.0527C134.527 53.2441 135.898 52.6113 137.164 52.1543C138.43 51.6621 140.064 51.2227 142.068 50.8359C145.021 50.2734 147.5 49.8867 149.504 49.6758C151.508 49.4297 152.545 49.2891 152.615 49.2539C152.826 49.2188 154.021 49.0957 156.201 48.8848C158.416 48.6387 160.156 48.1641 161.422 47.4609C161.422 40.7812 160.525 36.4219 158.732 34.3828C157.15 32.625 154.549 31.7461 150.928 31.7461C147.307 31.7461 144.582 32.6777 142.754 34.541C140.961 36.3691 140.064 39.2871 140.064 43.2949L140.117 44.4551C138.641 44.6309 137.234 44.7188 135.898 44.7188ZM161.422 52.207C159.031 53.0859 156.324 53.7012 153.301 54.0527C150.312 54.3691 147.957 54.7559 146.234 55.2129C144.512 55.6699 143.07 56.2324 141.91 56.9004C139.238 58.4473 137.902 61.1016 137.902 64.8633C137.902 70.9102 141.418 73.9336 148.449 73.9336C154.531 73.9336 158.381 71.0332 159.998 65.2324C160.947 61.9277 161.422 57.5859 161.422 52.207Z" fill="#1A1A1A"/>
<path d="M201.342 78.1523L196.807 78.2051C192.201 78.2051 189.354 77.502 188.264 76.0957C187.771 75.4629 187.525 74.707 187.525 73.8281C187.525 72.9141 187.877 72.2812 188.58 71.9297C189.283 71.5781 190.057 71.3848 190.9 71.3496C191.744 71.3145 192.518 71.0508 193.221 70.5586C193.924 70.0312 194.275 69.2051 194.275 68.0801V12.3926C194.275 9.19336 193.01 7.4707 190.479 7.22461C190.232 7.18945 189.916 7.1543 189.529 7.11914C189.143 7.08398 188.861 7.06641 188.686 7.06641C188.51 7.03125 188.281 6.99609 188 6.96094C187.754 6.89062 187.561 6.82031 187.42 6.75C187.314 6.67969 187.209 6.5918 187.104 6.48633C186.857 6.27539 186.734 5.76562 186.734 4.95703C186.734 4.14844 187.279 3.30469 188.369 2.42578C190.338 0.808594 192.992 0 196.332 0C199.883 0 201.957 0.210938 202.555 0.632812C203.75 1.47656 204.348 2.58398 204.348 3.95508V68.0801C204.348 70.1191 205.473 71.209 207.723 71.3496C210.008 71.4551 211.15 72.3516 211.15 74.0391C211.15 75.9727 210.096 77.168 207.986 77.625C206.369 77.9766 204.154 78.1523 201.342 78.1523Z" fill="#1A1A1A"/>
<path d="M256.768 38.5488C255.291 36.6152 253.164 35.0859 250.387 33.9609C247.645 32.8008 244.568 32.2207 241.158 32.2207C237.748 32.2207 234.848 33.2051 232.457 35.1738C227.816 39.0059 225.496 44.666 225.496 52.1543C225.496 57.9551 227.061 62.877 230.189 66.9199C233.354 70.9277 237.449 72.9316 242.477 72.9316C247.539 72.9316 251.178 71.8945 253.393 69.8203C255.643 67.7109 256.768 64.2305 256.768 59.3789V38.5488ZM242.213 26.5254C244.533 26.5254 247.117 26.9121 249.965 27.6855C252.848 28.4238 255.115 29.2148 256.768 30.0586V12.3926C256.768 9.19336 255.502 7.4707 252.971 7.22461C252.725 7.18945 252.408 7.1543 252.021 7.11914C251.635 7.08398 251.354 7.06641 251.178 7.06641C251.002 7.03125 250.773 6.99609 250.492 6.96094C250.246 6.89062 250.053 6.82031 249.912 6.75C249.807 6.67969 249.701 6.5918 249.596 6.48633C249.35 6.27539 249.227 5.76562 249.227 4.95703C249.227 4.14844 249.771 3.30469 250.861 2.42578C252.83 0.808594 255.484 0 258.824 0C262.375 0 264.449 0.210938 265.047 0.632812C266.242 1.47656 266.84 2.58398 266.84 3.95508V61.6465C266.84 65.5488 267.262 68.0801 268.105 69.2402C268.984 70.3652 269.758 71.0508 270.426 71.2969C271.129 71.543 271.727 71.7539 272.219 71.9297C272.746 72.1055 273.115 72.2461 273.326 72.3516C273.537 72.4219 273.801 72.5625 274.117 72.7734C274.68 73.0898 274.961 73.582 274.961 74.25C274.961 75.7266 274.17 76.8164 272.588 77.5195C271.041 78.1875 268.967 78.5215 266.365 78.5215C263.799 78.5215 261.936 78.0293 260.775 77.0449C259.615 76.0605 258.596 74.25 257.717 71.6133C254.834 76.7109 248.822 79.2598 239.682 79.2598C232.369 79.2598 226.41 76.834 221.805 71.9824C217.234 67.1309 214.949 60.8379 214.949 53.1035C214.949 45.3691 217.498 39.0059 222.596 34.0137C227.693 29.0215 234.232 26.5254 242.213 26.5254Z" fill="#1A1A1A"/>
<path d="M305.232 79.4707C297.287 79.4707 290.889 76.9746 286.037 71.9824C281.186 66.9551 278.76 60.5918 278.76 52.8926C278.76 47.7598 280.043 43.1895 282.609 39.1816C285.176 35.1738 288.639 32.1152 292.998 30.0059C297.393 27.8613 302.279 26.7891 307.658 26.7891C315.393 26.7891 321.773 29.1973 326.801 34.0137C331.828 38.8301 334.342 45.0527 334.342 52.6816C334.342 57.9551 333.041 62.6484 330.439 66.7617C327.873 70.8398 324.393 73.9863 319.998 76.2012C315.604 78.3809 310.682 79.4707 305.232 79.4707ZM307.395 73.6172C312.633 73.6172 316.711 71.8418 319.629 68.291C322.582 64.7402 324.059 60.0117 324.059 54.1055C324.059 48.1992 322.371 43.1016 318.996 38.8125C315.621 34.5234 311.279 32.3789 305.971 32.3789C300.697 32.3789 296.637 34.1895 293.789 37.8105C290.941 41.4316 289.518 46.1777 289.518 52.0488C289.518 57.9199 291.188 62.9824 294.527 67.2363C297.867 71.4902 302.156 73.6172 307.395 73.6172Z" fill="#1A1A1A"/>
</svg>
