<svg width="195" height="131" viewBox="0 0 195 131" fill="none" xmlns="http://www.w3.org/2000/svg">
<path d="M43.7704 47.3152C45.3956 46.4082 47.4484 46.9908 48.3553 48.616C49.2619 50.2409 48.6802 52.2929 47.0555 53.1999C39.3955 57.4748 28.5733 64.612 20.0165 72.5554C43.4669 75.1693 47.638 106.758 24.3319 110.36C20.7517 110.094 17.5833 109.222 14.8514 107.911C19.6091 113.07 25.7009 117.564 31.9657 120.361C32.1803 120.457 32.3962 120.547 32.6102 120.638C30.9399 116.123 32.5553 110.709 38.246 109.521C45.6289 110.045 48.8539 118.137 46.4198 123.189C50.4872 122.699 53.9445 120.803 56.4432 116.941C57.6306 115.106 58.5678 113.324 59.3124 111.636C58.9685 111.708 58.615 111.769 58.2518 111.819C41.3229 110.018 38.2136 87.3009 54.4579 84.3025C62.2787 84.9207 67.1415 90.3769 68.5087 96.2839C68.5822 96.4901 68.6378 96.7065 68.6708 96.9314L68.6444 96.9343L68.6454 96.9372C68.6656 96.9345 68.6708 96.9343 68.6708 96.9343L68.6717 96.9382C68.6721 96.9404 68.6724 96.9426 68.6727 96.9451C68.6734 96.9502 68.6748 96.9563 68.6757 96.9626C68.6774 96.9754 68.6792 96.9911 68.6815 97.0085C68.6861 97.0438 68.6918 97.0893 68.6981 97.1433C68.706 97.2109 68.7123 97.2934 68.7215 97.3894C68.972 98.99 68.9672 100.602 68.6952 102.143C68.6386 102.795 68.5597 103.499 68.4481 104.249C67.8081 108.548 66.1447 114.355 62.1024 120.602C58.4153 126.301 53.0708 129.2 47.1337 129.892C41.3261 130.569 35.0809 129.133 29.2176 126.515C17.5554 121.308 6.26145 110.901 1.35143 99.862C-1.00011 94.575 -0.0478842 89.0211 2.40514 83.9411C4.8466 78.8852 8.93817 73.9187 13.6024 69.3581C22.9504 60.2181 35.2753 52.0561 43.7704 47.3152Z" fill="#1A1A1A"/>
<path d="M66.9325 25.4119C75.2444 22.366 86.137 22.4097 99.3661 26.4285C106.364 28.5543 111.103 31.9623 114.54 35.9294C116.967 38.7306 118.69 41.759 120.093 44.5876C123.44 44.867 126.624 46.5811 128.608 49.8738C129.568 51.4676 129.054 53.5373 127.461 54.4978C126.834 54.8753 126.134 55.0244 125.457 54.9704C125.814 55.4527 126.188 55.897 126.589 56.3035C128.263 57.9993 130.604 59.2191 134.974 59.1003C148.18 58.7415 159.192 60.2278 167.121 62.987C168.989 63.6372 170.72 64.3717 172.288 65.1882C174.983 63.5355 178.394 62.7546 181.97 63.2185C189.537 64.2005 194.972 70.3828 194.11 77.0271C193.319 83.1287 187.491 87.497 180.684 87.4099C179.871 92.0803 178.344 97.4256 175.665 102.458C172.929 107.596 168.937 112.511 163.184 115.983C157.409 119.469 150.08 121.364 140.917 120.797C123.357 119.708 109.71 115.301 99.2694 112.391C93.977 110.916 89.6996 109.881 86.0419 109.676C82.4853 109.476 79.7556 110.079 77.3983 111.697C75.864 112.749 73.7668 112.359 72.7137 110.825C71.6607 109.291 72.0506 107.193 73.5848 106.139C77.5101 103.445 81.8451 102.69 86.4198 102.947C90.8935 103.198 95.8162 104.432 101.079 105.899C111.749 108.873 124.636 113.035 141.334 114.07C149.3 114.564 155.236 112.908 159.702 110.213C164.19 107.504 167.417 103.609 169.716 99.2908C172.097 94.8177 173.421 90.0018 174.108 85.8777C169.152 83.4884 166.039 78.6197 166.707 73.4714C166.847 72.3886 167.147 71.3606 167.582 70.4021C166.764 70.0408 165.873 69.6886 164.906 69.3523C157.985 66.9438 147.844 65.493 135.157 65.8376C129.169 66.0003 124.941 64.2293 121.792 61.0388C119.28 58.4938 117.612 55.1623 116.163 52.0544C115.183 52.6363 114.313 53.5766 113.727 54.9421C112.994 56.6527 111.013 57.4455 109.303 56.7126C107.592 55.9795 106.799 53.9985 107.532 52.2878C108.761 49.4215 110.835 47.3105 113.252 46.0232C112.182 44.022 110.979 42.1132 109.446 40.3435C106.846 37.3416 103.196 34.635 97.4081 32.8767C85.0667 29.1275 75.7583 29.3567 69.2518 31.741C62.8426 34.0897 58.8813 38.6147 57.1659 44.2214C56.6213 46.0011 54.7366 47.0032 52.9569 46.4587C51.1776 45.914 50.1772 44.0292 50.7215 42.2497C53.0488 34.6433 58.5238 28.4933 66.9325 25.4119Z" fill="#1A1A1A"/>
<path d="M148.313 87.1452C149.612 85.8121 151.745 85.7845 153.078 87.0827C154.406 88.3755 154.44 90.4963 153.159 91.8308C153.157 91.8326 153.15 91.8396 153.14 91.8513C153.116 91.8777 153.071 91.9272 153.012 91.9978C152.891 92.1414 152.715 92.3628 152.524 92.6423C152.124 93.2296 151.756 93.9329 151.593 94.6238C151.442 95.2626 151.484 95.7868 151.744 96.2868C152.023 96.8224 152.77 97.7438 154.819 98.7214C156.499 99.5226 157.212 101.535 156.411 103.215C155.61 104.894 153.598 105.606 151.919 104.805C148.989 103.408 146.915 101.609 145.765 99.3992C144.596 97.154 144.599 94.907 145.033 93.073C145.454 91.2912 146.293 89.8177 146.954 88.8474C147.294 88.3482 147.613 87.9449 147.853 87.6589C147.974 87.5157 148.077 87.4002 148.155 87.3142C148.194 87.2712 148.228 87.2348 148.255 87.2068C148.268 87.193 148.279 87.1807 148.289 87.1706C148.294 87.1657 148.299 87.161 148.303 87.157C148.305 87.1549 148.307 87.1519 148.308 87.1501L148.31 87.1482L150.727 89.4968L148.313 87.1452Z" fill="#1A1A1A"/>
<path d="M41.9257 69.5388C49.1547 70.0511 50.7404 80.8408 43.8505 81.9324C36.6081 81.2107 35.0289 70.9787 41.9257 69.5388Z" fill="#1A1A1A"/>
<path d="M79.909 57.2195C83.7829 48.1808 96.0681 46.6458 100.985 54.8054C101.945 56.3993 101.431 58.4698 99.8378 59.4304C98.2438 60.3907 96.1733 59.8769 95.2128 58.2829C93.5294 55.49 88.1255 55.1589 86.1044 59.8747C85.3712 61.5851 83.3901 62.3771 81.6796 61.6443C79.9689 60.9112 79.176 58.9301 79.909 57.2195Z" fill="#1A1A1A"/>
<path d="M111.392 17.9685C111.762 16.1445 113.541 14.965 115.365 15.3347C122.152 16.7104 126.289 21.2712 127.664 23.738C128.569 25.3637 127.986 27.4152 126.36 28.321C124.735 29.2266 122.683 28.6428 121.777 27.0173C121.18 25.946 118.547 22.8577 114.025 21.9412C112.201 21.5713 111.023 19.7924 111.392 17.9685Z" fill="#1A1A1A"/>
<path d="M74.1102 2.91869C78.1019 0.45242 82.6435 -0.435964 87.5223 0.19701C89.3679 0.436472 90.6707 2.12688 90.4315 3.9724C90.1918 5.81787 88.5007 7.12007 86.6551 6.8806C83.1796 6.4297 80.2178 7.06687 77.6522 8.65209C75.0395 10.2665 72.6066 13.0104 70.5184 17.1335C69.6775 18.7935 67.6502 19.4583 65.9901 18.6179C64.3299 17.7771 63.6652 15.7489 64.5057 14.0886C66.9861 9.19108 70.1655 5.35614 74.1102 2.91869Z" fill="#1A1A1A"/>
</svg>
