<svg width="189" height="135" viewBox="0 0 189 135" fill="none" xmlns="http://www.w3.org/2000/svg">
<path d="M37.6152 52.5596C39.1102 51.451 41.2205 51.7648 42.3291 53.2598C43.4375 54.7547 43.1248 56.8651 41.6298 57.9736C34.5837 63.1986 24.7702 71.6682 17.3066 80.6465C40.8986 80.221 49.1001 111.011 26.4511 117.582C22.8664 117.779 19.6122 117.321 16.7343 116.373C22.1161 120.877 28.7352 124.55 35.3076 126.518C35.5341 126.585 35.761 126.648 35.9863 126.711C33.7484 122.448 34.6536 116.871 40.1445 114.961C47.5327 114.53 51.772 122.137 50.0097 127.461C53.9782 126.451 57.1612 124.126 59.1416 119.977C60.0831 118.003 60.7834 116.115 61.3047 114.346C60.972 114.461 60.629 114.569 60.2744 114.665C43.2543 115.057 37.2471 92.9279 52.9707 87.8643C60.7946 87.4715 66.3138 92.243 68.4365 97.9141C68.5416 98.1161 68.6282 98.3317 68.6923 98.5596L68.665 98.5664L68.666 98.5693C68.6898 98.5629 68.6933 98.5625 68.6933 98.5625L68.6943 98.5664C68.6949 98.5685 68.6956 98.5709 68.6963 98.5732C68.6976 98.5782 68.6995 98.5838 68.7011 98.5898C68.7045 98.6023 68.7083 98.6177 68.7129 98.6348C68.722 98.6692 68.7338 98.7137 68.747 98.7666C68.7656 98.841 68.7856 98.934 68.8105 99.0439C69.2547 100.578 69.4539 102.155 69.3867 103.697C69.4153 104.359 69.4275 105.076 69.413 105.845C69.3316 110.19 68.4293 116.163 65.2246 122.879C62.3014 129.005 57.3748 132.568 51.5761 134.018C45.9038 135.436 39.5255 134.816 33.374 132.975C21.1387 129.311 8.60017 120.444 2.31051 110.128C-0.701762 105.187 -0.472341 99.5575 1.30661 94.2041C3.07719 88.8761 6.49553 83.4245 10.5341 78.3018C18.6284 68.0347 29.8007 58.3542 37.6152 52.5596Z" fill="#1A1A1A"/>
<path fill-rule="evenodd" clip-rule="evenodd" d="M162.893 3.42969C172.146 1.95803 182.54 6.78152 186.826 16.3623C190.834 25.3212 189.109 37.3412 178.441 50.8916C181.307 53.1145 183.116 56.363 183.116 59.9844C183.116 63.576 181.337 66.8012 178.512 69.0225C178.841 74.6194 178.394 82.6126 175.51 90.2725C173.458 95.7202 170.131 101.109 164.873 105.292C159.594 109.492 152.57 112.315 143.41 112.931C125.856 114.111 111.755 111.496 101.027 109.954C95.5891 109.172 91.2142 108.696 87.5605 108.963C84.0078 109.223 81.3785 110.171 79.249 112.079C77.8628 113.321 75.733 113.203 74.4912 111.817C73.2494 110.431 73.3658 108.3 74.7519 107.059C78.2979 103.882 82.4996 102.575 87.0693 102.241C91.5381 101.915 96.5785 102.506 101.986 103.283C112.951 104.859 126.266 107.328 142.958 106.206C150.921 105.671 156.595 103.265 160.677 100.018C164.779 96.7535 167.478 92.4756 169.202 87.8975C171.302 82.3225 171.893 76.4661 171.865 71.9062C171.034 72.0434 170.176 72.1162 169.299 72.1162C161.668 72.1161 155.482 66.6844 155.482 59.9844C155.482 59.3331 155.541 58.6938 155.653 58.0703C148.996 57.3664 140.526 57.6099 130.626 59.1689C124.709 60.1008 120.289 58.8887 116.755 56.1299C115.778 55.3673 114.891 54.4972 114.07 53.5664C109.181 56.577 102.03 55.7414 97.8271 50.4043C96.6758 48.9422 96.9286 46.8234 98.3906 45.6719C99.8527 44.5206 101.972 44.7715 103.123 46.2334C105.174 48.8376 108.041 49.0383 110.058 48.0107C109.753 47.5308 109.454 47.0557 109.161 46.5908C106.997 43.1617 104.891 39.9063 101.849 37.1953C98.8834 34.5531 94.9157 32.3388 88.9502 31.3398C76.229 29.2098 67.0274 30.6344 60.8818 33.8359C54.8279 36.9898 51.4817 41.9876 50.5019 47.7686C50.1909 49.6035 48.4511 50.8393 46.6162 50.5283C44.7815 50.2172 43.5466 48.4774 43.8574 46.6426C45.1865 38.7998 49.8251 31.9962 57.7675 27.8584C65.6185 23.7684 76.4261 22.4101 90.0625 24.6934C97.2753 25.9011 102.413 28.6712 106.332 32.1631C110.174 35.5863 112.73 39.6163 114.861 42.9941C114.871 43.0096 114.881 43.0255 114.891 43.041C115.408 42.9339 115.959 42.9473 116.502 43.1035C118.29 43.6182 119.323 45.4841 118.809 47.2725C118.706 47.6301 118.586 47.9757 118.455 48.3105C119.238 49.2995 120.028 50.1348 120.902 50.8174C122.781 52.2837 125.259 53.1918 129.577 52.5117C141.209 50.68 151.3 50.5273 159.176 51.7305C159.879 51.0653 160.667 50.4693 161.523 49.9561C152.436 43.7081 145.52 35.7021 142.992 27.8623C141.262 22.4952 141.522 16.8871 145.049 12.2393C148.479 7.71786 154.517 4.76185 162.893 3.42969ZM180.674 19.1152C177.716 12.5028 170.401 9.06008 163.951 10.0859C156.433 11.2817 152.37 13.7411 150.418 16.3135C148.562 18.7595 148.158 21.9232 149.406 25.7939C151.79 33.1887 159.926 41.9155 171.19 47.9658C171.476 48.0002 171.76 48.0413 172.04 48.0908C182.854 35.0726 183.386 25.1784 180.674 19.1152Z" fill="#1A1A1A"/>
<path d="M144.878 83.165C145.476 81.4029 147.389 80.4589 149.151 81.0566C150.906 81.652 151.85 83.5515 151.268 85.3076C151.267 85.3095 151.264 85.3192 151.26 85.335C151.249 85.3691 151.23 85.433 151.207 85.5225C151.16 85.704 151.096 85.9793 151.045 86.3135C150.937 87.016 150.908 87.8098 151.058 88.5039C151.196 89.1453 151.459 89.6002 151.909 89.9395C152.391 90.3028 153.462 90.8125 155.733 90.8125C157.594 90.8125 159.103 92.3217 159.103 94.1826C159.103 96.0435 157.595 97.5532 155.734 97.5537C152.489 97.5537 149.842 96.8215 147.853 95.3223C145.831 93.7988 144.867 91.7697 144.469 89.9277C144.082 88.1382 144.205 86.4474 144.384 85.2871C144.476 84.6902 144.59 84.1889 144.684 83.8271C144.731 83.6457 144.774 83.4962 144.808 83.3848C144.824 83.3294 144.839 83.2826 144.851 83.2461C144.856 83.2279 144.862 83.2115 144.866 83.1982C144.868 83.1917 144.87 83.185 144.872 83.1797C144.873 83.177 144.874 83.1742 144.875 83.1719L144.876 83.1689L148.069 84.248L144.878 83.165Z" fill="#1A1A1A"/>
<path d="M38.6484 74.8359C45.8833 74.4139 48.8438 84.91 42.1513 86.8789C34.8763 87.0951 31.9939 77.1511 38.6484 74.8359Z" fill="#1A1A1A"/>
<path d="M84.3789 47.8057C84.8934 46.0173 86.7604 44.9848 88.5488 45.499C90.3371 46.0137 91.3697 47.8805 90.8554 49.6689C88.2213 58.8241 75.9583 60.5255 69.874 52.7998C68.7229 51.3377 68.9754 49.2188 70.4375 48.0674C71.8996 46.9163 74.0185 47.168 75.1699 48.6299C78.3445 52.6607 83.4772 50.9397 84.3789 47.8057Z" fill="#1A1A1A"/>
<path d="M79.1933 0C81.0545 0 82.5634 1.50896 82.5634 3.37012C82.5632 5.23104 81.0543 6.73926 79.1933 6.73926C75.6885 6.73926 72.8334 7.75303 70.4931 9.65527C68.1099 11.5924 66.05 14.6259 64.5097 18.9834C63.8895 20.7379 61.9645 21.6581 60.2099 21.0381C58.4552 20.4178 57.5351 18.492 58.1552 16.7373C59.9848 11.5613 62.6438 7.34957 66.2421 4.4248C69.8834 1.46522 74.2734 0 79.1933 0Z" fill="#1A1A1A"/>
<path d="M99.2636 6.98145C99.9207 5.24015 101.866 4.36059 103.607 5.01758C110.086 7.46204 113.44 12.626 114.402 15.2812C115.036 17.0309 114.131 18.9627 112.382 19.5967C110.632 20.2303 108.7 19.3259 108.066 17.5762C107.648 16.423 105.544 12.953 101.228 11.3242C99.4865 10.6672 98.6069 8.72259 99.2636 6.98145Z" fill="#1A1A1A"/>
</svg>
