<svg width="148" height="154" viewBox="0 0 148 154" fill="none" xmlns="http://www.w3.org/2000/svg">
<path d="M80.3646 22.0527C92.5759 22.0528 101.235 26.2644 108.27 33.0283C115.103 39.5987 120.401 48.6034 126.043 57.8975C137.545 76.8417 147.426 98.4211 147.426 116.936C147.426 124.07 143.616 130.502 138.395 135.713C133.142 140.955 126.15 145.293 118.972 148.308C111.808 151.317 104.204 153.114 97.6546 153.051C91.2579 152.989 84.8585 151.092 81.7933 145.52C75.9496 134.894 74.5396 126.051 74.6791 119.726C74.7119 118.238 74.8318 116.896 74.9955 115.711C74.781 106.673 84.3095 97.1171 96.1498 100.724C110.924 109.926 99.1749 130.978 81.9037 126.329C82.6369 130.738 84.3066 136.103 87.6908 142.26C87.0779 136.303 93.4368 129.404 100.986 131.771C106.759 135.556 105.402 142.604 100.833 146.182C105.575 145.762 111.004 144.346 116.363 142.095C118.389 141.244 120.38 140.282 122.298 139.229C120.176 139.081 117.964 138.676 115.684 137.97C93.6548 125.124 111.281 94.5688 136.279 103.016C137.431 103.756 138.473 104.539 139.411 105.355C136.544 91.4397 129.144 75.9932 120.282 61.3965C114.467 51.8195 109.655 43.7113 103.599 37.8877C97.7437 32.2577 90.7318 28.793 80.3646 28.793C74.6418 28.793 70.3251 28.7492 66.7748 28.9854C63.2562 29.2195 60.8127 29.7157 58.8294 30.6318C54.9624 32.4183 51.911 36.2162 46.8285 46.332L46.3646 47.2549L45.4652 47.7598C40.8759 50.3323 36.0305 52.2784 31.472 54.0049C26.8302 55.7629 22.6032 57.2534 18.8539 58.9961C15.1236 60.73 12.2211 62.5624 10.2132 64.7959C8.28562 66.9403 7.06107 69.5869 6.89781 73.2754C6.46335 83.0942 6.92286 89.9432 8.35972 94.7803C9.73907 99.4235 11.9807 102.113 15.3168 103.878C18.8829 105.764 23.974 106.743 31.348 107.181C38.6839 107.616 47.7598 107.5 59.1341 107.5C60.9951 107.5 62.5039 109.008 62.5043 110.869C62.5043 112.73 60.996 114.239 59.1351 114.239C47.9313 114.239 38.5466 114.359 30.9496 113.908C23.3912 113.46 17.0745 112.432 12.1654 109.835C7.02653 107.117 3.72495 102.847 1.89879 96.6992C0.130101 90.745 -0.277705 82.9695 0.164411 72.9775C0.396378 67.7361 2.22553 63.6006 5.20152 60.29C8.09746 57.0686 11.9498 54.7734 16.013 52.8848C20.057 51.0051 24.663 49.378 29.0853 47.7031C33.2718 46.1176 37.4104 44.4484 41.2865 42.3643C46.0928 32.9225 49.9686 27.3015 56.0033 24.5137C59.0701 23.097 62.4571 22.5173 66.3275 22.2598C70.1661 22.0044 74.7986 22.0527 80.3646 22.0527Z" fill="#1A1A1A"/>
<path d="M107.486 102.491C101.136 98.7567 106.862 88.7654 114.164 91.0547C120.386 95.1341 114.882 104.58 107.486 102.491Z" fill="#1A1A1A"/>
<path d="M59.7044 87.2695C61.4118 86.5289 63.3973 87.3122 64.138 89.0195C64.8786 90.7269 64.0944 92.7125 62.3871 93.4531C49.2336 99.159 38.2645 100.616 30.0365 100.224C25.9306 100.028 22.5023 99.3707 19.8285 98.5469C17.2404 97.7494 15.1265 96.7248 13.8304 95.6348C12.4062 94.4368 12.2224 92.3101 13.4203 90.8857C14.6182 89.4614 16.7449 89.2787 18.1693 90.4766C18.4826 90.7399 19.627 91.4326 21.8138 92.1064C23.9156 92.754 26.7816 93.3216 30.3568 93.4922C37.4918 93.8326 47.4372 92.591 59.7044 87.2695Z" fill="#1A1A1A"/>
<path d="M24.6996 61.332C32.3303 61.332 38.5169 66.7637 38.5169 73.4639C38.5169 80.164 32.3303 85.5957 24.6996 85.5957C17.069 85.5956 10.8832 80.1639 10.8832 73.4639C10.8832 66.7638 17.069 61.3321 24.6996 61.332Z" fill="#1A1A1A"/>
<path d="M81.6488 36.9619C85.1789 37.1664 87.7963 41.5496 87.4955 46.752C87.1945 51.9543 84.0892 56.0059 80.5589 55.8018C77.0288 55.5976 74.4106 51.2151 74.7113 46.0127C75.0121 40.8102 78.1185 36.7578 81.6488 36.9619Z" fill="#1A1A1A"/>
<path d="M59.433 35.8584C62.9631 36.0628 65.5805 40.4461 65.2796 45.6484C64.9787 50.8508 61.8733 54.9024 58.3431 54.6982C54.8129 54.4941 52.1948 50.1115 52.4955 44.9092C52.7963 39.7066 55.9027 35.6543 59.433 35.8584Z" fill="#1A1A1A"/>
<path d="M61.3431 0C63.2043 0 64.7132 1.50896 64.7132 3.37012C64.7129 5.231 63.2041 6.73926 61.3431 6.73926C57.8383 6.73926 54.9832 7.75303 52.6429 9.65527C50.2597 11.5924 48.1998 14.6259 46.6595 18.9834C46.0392 20.7379 44.1143 21.658 42.3597 21.0381C40.6051 20.4179 39.685 18.492 40.305 16.7373C42.1346 11.5614 44.7937 7.34957 48.3919 4.4248C52.0332 1.46522 56.4232 0 61.3431 0Z" fill="#1A1A1A"/>
<path d="M81.4144 6.98047C82.0714 5.23918 84.0169 4.35964 85.7582 5.0166C92.2371 7.46115 95.5912 12.6261 96.5531 15.2812C97.1866 17.031 96.2822 18.9628 94.5326 19.5967C92.7828 20.2303 90.851 19.3249 90.2171 17.5752C89.799 16.4218 87.6947 12.9528 83.3783 11.3242C81.637 10.6672 80.7574 8.72175 81.4144 6.98047Z" fill="#1A1A1A"/>
</svg>
