<svg width="186" height="145" viewBox="0 0 186 145" fill="none" xmlns="http://www.w3.org/2000/svg">
<path d="M21.7373 66.6506C22.8188 65.1359 24.9228 64.785 26.4375 65.8664C27.9521 66.9479 28.304 69.052 27.2227 70.5666C22.1258 77.7055 15.3943 88.7828 11.0547 99.6213C33.37 91.9628 50.6433 118.735 31.1153 131.954C27.7661 133.244 24.5301 133.81 21.501 133.793C28.0069 136.422 35.4344 137.881 42.293 137.732C42.5278 137.727 42.7618 137.716 42.9942 137.707C39.5538 134.34 38.6996 128.755 43.336 125.248C50.234 122.565 56.6087 128.501 56.5684 134.109C60.0362 131.927 62.3511 128.735 62.959 124.175C63.2478 122.008 63.3336 119.997 63.2852 118.153C63.0041 118.365 62.7102 118.572 62.4024 118.773C46.3283 124.382 33.8054 105.174 47.209 95.5188C54.531 92.739 61.2489 95.5794 65.0137 100.321C65.1769 100.481 65.3262 100.661 65.458 100.859L65.4346 100.873C65.4353 100.874 65.4359 100.875 65.4366 100.876C65.4553 100.864 65.4591 100.862 65.46 100.862L65.4756 100.885C65.4827 100.896 65.4914 100.909 65.501 100.924C65.5203 100.954 65.5454 100.993 65.5742 101.039C65.6137 101.103 65.6603 101.182 65.7159 101.276C66.612 102.6 67.2871 104.041 67.6983 105.53C67.9295 106.151 68.1616 106.831 68.3848 107.569C69.6442 111.729 70.6239 117.689 69.6407 125.066C68.7438 131.794 65.1515 136.699 60.0801 139.863C55.1193 142.957 48.8601 144.33 42.4405 144.47C29.6715 144.748 15.0126 140.168 5.85452 132.287C1.46857 128.513 -0.0447937 123.086 0.00100484 117.445C0.0466933 111.83 1.62193 105.591 3.8887 99.4748C8.43191 87.2157 16.0845 74.5682 21.7373 66.6506Z" fill="#1A1A1A"/>
<path fill-rule="evenodd" clip-rule="evenodd" d="M52.6631 16.5529C54.2749 15.6224 56.3361 16.1745 57.2666 17.7863C58.3164 19.6048 58.8576 21.4551 59.0244 23.2834C59.4194 23.2213 59.8172 23.161 60.2178 23.1018C74.9473 20.9237 83.8452 27.851 90.7832 33.2668C94.3544 36.0544 97.1072 38.1835 99.9912 39.2258C102.576 40.1601 105.398 40.2509 109.222 38.3137C121.007 32.3434 131.598 28.9795 139.945 28.0842C140.187 28.0583 140.427 28.0348 140.666 28.0129C142.325 26.2549 144.501 24.8443 147.054 24.0188C154.314 21.6713 161.871 24.9365 163.933 31.3117C165.076 34.8484 164.285 38.5972 162.117 41.6369C163.979 46.4869 165.721 52.7941 165.844 59.3967C165.949 65.0715 164.861 71.1147 161.477 76.6194C158.371 81.6696 153.474 86.0326 146.31 89.2346C146.222 95.4816 145.765 100.463 144.982 108.215C144.868 109.35 145.052 111.242 145.546 113.706C146.023 116.088 146.728 118.719 147.471 121.199C148.21 123.671 148.973 125.947 149.552 127.607C149.841 128.435 150.082 129.108 150.251 129.571C150.335 129.801 150.402 129.98 150.446 130.1C150.468 130.159 150.484 130.205 150.495 130.235C150.5 130.249 150.505 130.259 150.508 130.266C150.509 130.269 150.51 130.272 150.511 130.274L150.512 130.275C151.169 132.015 150.291 133.96 148.55 134.618C146.809 135.276 144.865 134.398 144.207 132.657L147.359 131.466L144.206 132.656L144.205 132.653C144.204 132.65 144.202 132.645 144.2 132.641C144.197 132.631 144.191 132.617 144.185 132.6C144.171 132.565 144.153 132.513 144.129 132.447C144.08 132.316 144.008 132.125 143.919 131.88C143.74 131.391 143.487 130.687 143.187 129.824C142.586 128.101 141.79 125.726 141.014 123.132C140.24 120.546 139.471 117.696 138.938 115.031C138.42 112.449 138.056 109.729 138.277 107.538C139.149 98.913 139.587 93.9959 139.587 86.9875C139.587 84.9213 139.095 83.8907 138.703 83.3772C138.311 82.8635 137.76 82.5292 137.024 82.3283C136.613 82.2161 136.179 82.1572 135.754 82.134L135.179 85.5246C134.867 87.3595 133.128 88.5949 131.293 88.2834C129.458 87.9718 128.224 86.2315 128.535 84.3967L129.217 80.3781C129.062 80.2599 128.899 80.137 128.729 80.0119C127.524 79.128 126.263 78.3485 125.36 78.0354C123.672 77.4499 122.408 77.219 121.242 77.219C121.101 77.219 120.958 77.2217 120.814 77.2287C121.089 77.8596 121.338 78.4422 121.554 78.9592C121.86 79.6937 122.104 80.2988 122.272 80.7229C122.356 80.9347 122.421 81.1024 122.466 81.218C122.488 81.2757 122.507 81.3214 122.519 81.3528C122.524 81.3681 122.529 81.3802 122.532 81.3889C122.534 81.3929 122.535 81.3961 122.536 81.3987L122.539 81.4045L122.596 81.5686C123.144 83.2649 122.271 85.1114 120.586 85.7522C118.901 86.3927 117.021 85.593 116.304 83.9612L116.238 83.799C116.238 83.798 116.237 83.7963 116.236 83.7942C116.234 83.7888 116.231 83.7797 116.227 83.7678L116.007 83.2063C115.852 82.8146 115.623 82.2467 115.334 81.5539C115.128 81.0591 114.889 80.5032 114.627 79.9026C113.407 80.9509 112.923 81.7823 112.75 82.4572C112.473 83.5394 112.703 85.357 114.852 88.9758C115.959 90.8408 116.919 92.5383 117.752 94.1154C121.311 100.853 125.194 105.321 127.063 113.899C127.769 117.143 128.458 121.725 128.964 125.417C129.219 127.28 129.431 128.946 129.579 130.146C129.653 130.746 129.712 131.23 129.752 131.566C129.772 131.733 129.786 131.864 129.797 131.953C129.802 131.997 129.807 132.032 129.81 132.055C129.811 132.066 129.811 132.074 129.812 132.08C129.812 132.083 129.812 132.086 129.813 132.088L129.814 132.09C130.027 133.939 128.7 135.611 126.852 135.824C125.003 136.038 123.332 134.712 123.118 132.863L123.117 132.862C123.117 132.86 123.117 132.859 123.117 132.857C123.117 132.852 123.115 132.843 123.114 132.832C123.112 132.811 123.107 132.779 123.103 132.737C123.093 132.652 123.078 132.525 123.059 132.363C123.02 132.036 122.963 131.562 122.89 130.973C122.744 129.794 122.536 128.157 122.286 126.33C121.782 122.644 121.123 118.294 120.478 115.333C119.07 108.872 116.75 106.08 113.331 100.068C101.311 105.348 90.5305 106.444 77.5205 104.818C75.674 104.587 74.364 102.903 74.5948 101.056C74.8256 99.2092 76.5098 97.8994 78.3565 98.1301C90.0801 99.5955 99.5011 98.6728 110.063 94.1418C109.744 93.5879 109.409 93.0128 109.056 92.4172C106.739 88.5157 105.234 84.6307 106.222 80.7815C107.209 76.9325 110.398 74.2529 114.307 71.9485L114.597 71.7776L114.915 71.6672C117.08 70.9163 119.111 70.4788 121.241 70.4787C123.371 70.4787 125.404 70.9162 127.569 71.6672C129.483 72.3308 131.424 73.6301 132.717 74.5793C133.14 74.8901 133.525 75.1888 133.855 75.4514C133.967 75.4409 134.083 75.4307 134.202 75.4221C135.372 75.3377 137.047 75.3472 138.801 75.8264C140.587 76.3144 142.559 77.3231 144.059 79.2854C144.694 80.1176 145.197 81.0622 145.567 82.1135C150.499 79.5476 153.696 76.4048 155.735 73.0891C158.28 68.9515 159.194 64.2649 159.105 59.5227C159.017 54.7843 157.929 50.1427 156.618 46.2551C155.951 46.5824 155.251 46.8689 154.519 47.1057C147.258 49.4531 139.701 46.1877 137.64 39.8127C137.158 38.3229 137.018 36.7947 137.181 35.2981C130.374 36.5469 121.873 39.4604 112.268 44.3264C106.849 47.0715 102.098 47.1541 97.7002 45.5647C96.4811 45.124 95.3032 44.5549 94.1612 43.9074C94.1438 46.6478 93.058 48.9368 91.0586 49.8488C87.8413 51.3164 83.4801 48.6624 81.3174 43.9211C79.731 40.4431 79.7693 36.8087 81.1719 34.5393C75.8614 30.9915 69.8509 28.4905 61.2051 29.7688C60.107 29.9312 59.0412 30.1049 58.0078 30.2873C57.3882 32.0021 56.5532 33.6213 55.6358 35.0852C52.5846 39.9533 48.0958 44.0904 44.8867 46.4494C43.3874 47.5514 41.2783 47.2296 40.1758 45.7307C39.0735 44.2312 39.3952 42.1212 40.8946 41.0188C43.4772 39.1202 46.9922 35.8761 49.458 32.2219C42.8665 34.1115 38.1776 36.577 35.1963 39.5354C33.01 41.7051 31.7148 44.1641 31.2266 47.0041C30.7302 49.8925 31.0359 53.3752 32.3946 57.5774C32.9669 59.3482 31.9954 61.248 30.2246 61.8205C28.4538 62.3931 26.5541 61.4214 25.9815 59.6506C24.3886 54.724 23.8543 50.1084 24.584 45.8625C25.3222 41.5683 27.3207 37.8561 30.4483 34.7522C35.2959 29.9413 42.7642 26.6776 52.3321 24.5451C52.3241 23.3272 52.0295 22.1945 51.4297 21.1555C50.4996 19.5439 51.0519 17.4836 52.6631 16.5529ZM133.647 82.2844C133.647 82.2844 133.649 82.2849 133.651 82.2844C133.653 82.2841 133.654 82.2828 133.655 82.2824C133.651 82.2834 133.648 82.2841 133.647 82.2844ZM133.661 82.2815H133.663L133.665 82.2805C133.664 82.2807 133.662 82.2812 133.661 82.2815Z" fill="#1A1A1A"/>
<path d="M157.99 103.42C158.992 101.852 161.075 101.392 162.644 102.394C164.212 103.396 164.672 105.48 163.67 107.048L161.675 110.172C160.673 111.74 158.589 112.2 157.021 111.198C155.452 110.197 154.994 108.113 155.995 106.544L157.99 103.42Z" fill="#1A1A1A"/>
<path d="M170.69 82.0569C173.108 81.7619 176.91 81.7152 180.009 82.9231C181.603 83.5444 183.357 84.6361 184.417 86.551C185.521 88.5456 185.547 90.8341 184.819 93.1311C183.931 95.9376 182.339 97.8863 180.167 99.0119C178.168 100.048 176.026 100.191 174.448 100.219C172.566 100.253 171.618 100.159 170.585 100.307C170.173 100.366 169.976 100.445 169.897 100.488C169.853 100.511 169.839 100.52 169.807 100.572C168.805 102.14 166.721 102.599 165.152 101.598C163.584 100.596 163.125 98.512 164.126 96.9436C165.587 94.6565 167.815 93.8945 169.631 93.635C171.204 93.4101 173.242 93.5002 174.327 93.4807C175.718 93.4556 176.527 93.308 177.066 93.0285C177.432 92.839 177.966 92.4468 178.394 91.0969C178.561 90.569 178.582 90.2355 178.573 90.0588C178.565 89.9008 178.534 89.8385 178.522 89.8166C178.494 89.7661 178.31 89.4941 177.562 89.2024C175.975 88.5839 173.468 88.5078 171.506 88.7473C169.659 88.9723 167.978 87.657 167.753 85.8098C167.528 83.9624 168.843 82.2823 170.69 82.0569Z" fill="#1A1A1A"/>
<path d="M29.5703 87.5285C36.3245 84.9012 42.3705 93.9771 36.6084 97.9094C29.7528 100.353 23.9511 91.7786 29.5703 87.5285Z" fill="#1A1A1A"/>
<path d="M143.642 60.0559C147.232 59.894 150.532 60.3722 152.58 60.9006C154.382 61.3657 155.466 63.204 155.001 65.0061C154.536 66.8077 152.698 67.8918 150.897 67.427C149.462 67.0568 146.831 66.6591 143.945 66.7893C141.035 66.9206 138.21 67.5724 136.084 68.9895C134.536 70.0216 132.444 69.6031 131.411 68.0549C130.379 66.5064 130.797 64.4145 132.346 63.382C135.881 61.0249 140.076 60.2167 143.642 60.0559Z" fill="#1A1A1A"/>
<path d="M57.7627 43.7453C60.98 42.2778 65.3412 44.9318 67.5039 49.6731C69.6666 54.4143 68.812 59.4477 65.5948 60.9153C62.3775 62.3827 58.0162 59.7287 55.8535 54.9875C53.6909 50.2463 54.5456 45.213 57.7627 43.7453Z" fill="#1A1A1A"/>
<path d="M79.1153 0.460176C82.0772 -0.348092 85.3266 -0.161144 88.5342 1.57932C91.6535 3.27202 94.4846 6.29568 97.0323 10.7082C97.9628 12.32 97.4106 14.3811 95.7989 15.3117C94.1871 16.2422 92.1259 15.6901 91.1953 14.0783C89.0254 10.32 86.9844 8.40663 85.3194 7.50315C83.7426 6.64758 82.2945 6.57878 80.8897 6.96213C77.7592 7.81645 74.6404 11.0149 72.7276 14.1487C71.758 15.7373 69.6834 16.2394 68.0948 15.2697C66.5065 14.3001 66.0044 12.2264 66.9737 10.6379C69.2171 6.96223 73.5125 1.98919 79.1153 0.460176Z" fill="#1A1A1A"/>
</svg>
