<svg width="195" height="199" viewBox="0 0 195 199" fill="none" xmlns="http://www.w3.org/2000/svg">
<path d="M51.7606 105.212C34.3902 111.255 41.9141 137.212 60.9044 136.648C78.3743 131.508 68 100.5 51.7606 105.212Z" fill="#1A1A1A"/>
<path d="M115.197 93.5638C72.1692 86.697 71.9175 144.732 114.192 159.304C157.765 167.786 161.824 102.467 115.197 93.5638Z" fill="#1A1A1A"/>
<path d="M72.8121 43.4735C66.8971 43.4135 62.1404 46.8353 59.9473 48.4989C44.8048 59.9858 45.2767 93.2129 63.7731 96.4131C91.4951 101.21 103.734 43.7861 72.8121 43.4735Z" fill="#1A1A1A"/>
<path d="M114.786 41.0983C88.5846 49.1972 111.198 91.0134 137.519 87.2918C160.666 82.6781 141.5 34 114.786 41.0983Z" fill="#1A1A1A"/>
</svg>
