<svg width="195" height="199" viewBox="0 0 195 199" fill="none" xmlns="http://www.w3.org/2000/svg">
<path d="M51.7606 105.212C34.3902 111.255 41.9141 137.212 60.9044 136.648C78.3743 131.508 68 100.5 51.7606 105.212Z" fill="#1A1A1A"/>
<path d="M115.197 93.5636C72.1692 86.6969 71.9175 144.732 114.192 159.304C157.765 167.786 161.824 102.466 115.197 93.5636Z" fill="#1A1A1A"/>
<path d="M72.8121 43.4733C66.8971 43.4134 62.1404 46.8352 59.9473 48.4988C44.8048 59.9857 45.2767 93.2128 63.7731 96.413C91.4951 101.209 103.734 43.786 72.8121 43.4733Z" fill="#1A1A1A"/>
<path d="M114.786 41.0982C88.5846 49.197 111.198 91.0133 137.519 87.2917C160.666 82.678 141.5 33.9999 114.786 41.0982Z" fill="#1A1A1A"/>
</svg>
