<svg width="195" height="199" viewBox="0 0 195 199" fill="none" xmlns="http://www.w3.org/2000/svg">
<path d="M51.7606 105.212C34.3902 111.255 41.9141 137.212 60.9044 136.648C78.3743 131.508 68 100.5 51.7606 105.212Z" fill="#1A1A1A"/>
<path d="M115.197 93.5636C72.1692 86.6969 71.9175 144.732 114.192 159.304C157.765 167.786 161.824 102.466 115.197 93.5636Z" fill="#1A1A1A"/>
<path d="M72.8121 43.4733C66.8971 43.4134 62.1404 46.8352 59.9473 48.4988C44.8048 59.9857 45.2767 93.2128 63.7731 96.413C91.4951 101.209 103.734 43.786 72.8121 43.4733Z" fill="#1A1A1A"/>
<path d="M114.786 41.0982C88.5846 49.197 111.198 91.0133 137.519 87.2917C160.666 82.678 141.5 33.9999 114.786 41.0982Z" fill="#1A1A1A"/>
<path d="M112.988 34.3329C122.03 31.9303 130.336 34.3546 136.88 38.9393C143.304 43.4404 148.22 50.1063 151.254 56.9755C154.255 63.7701 155.765 71.5796 154.347 78.5292C153.622 82.0808 152.088 85.5842 149.404 88.4637C146.68 91.3867 143.093 93.3187 138.887 94.1571L138.693 94.1952L138.499 94.2225C137.59 94.3511 136.687 94.436 135.793 94.4843C149.57 103.844 156.06 119.122 155.515 133.224C155.139 142.954 151.391 152.557 143.904 159.125C136.258 165.832 125.542 168.645 112.854 166.175L112.374 166.081L111.911 165.922C91.9245 159.033 79.9498 143.39 76.6455 127.633C76.4447 128.835 76.1489 130.027 75.7451 131.194C73.8228 136.75 69.5558 141.399 62.8799 143.363L62.0146 143.618L61.1123 143.644C47.9834 144.035 38.818 135.151 35.9746 125.36C34.5469 120.444 34.5834 114.934 36.7832 109.933C39.0437 104.795 43.3705 100.719 49.4609 98.6005L49.6338 98.5399L49.8096 98.4891C50.414 98.3138 51.0141 98.1691 51.6084 98.0555C45.418 92.4896 42.6677 83.7098 42.2559 75.9335C41.6408 64.3203 45.7106 50.5123 55.7168 42.9218C57.9596 41.2204 64.3954 36.3876 72.8828 36.4735C83.2301 36.5781 90.6148 41.7038 94.5615 49.3358C95.2494 50.666 95.8232 52.0521 96.293 53.4774C96.3943 52.5405 96.5486 51.6079 96.7617 50.6835C98.5159 43.0768 103.963 37.1164 112.719 34.41L112.853 34.369L112.988 34.3329ZM81.3994 99.1776C77.7472 101.654 73.5013 103.309 68.7871 103.639C72.0398 106.843 74.3471 110.965 75.6543 115.147C75.7111 115.329 75.7657 115.512 75.8193 115.696C76.2733 109.784 78.0765 104.044 81.3994 99.1776ZM97.9473 66.4823C97.8507 68.7473 97.5786 70.9989 97.1572 73.1844C95.9331 79.5333 93.3446 85.9379 89.4697 91.2479C95.5037 87.2874 103.125 85.4813 111.921 86.1366C106.913 82.0808 102.888 76.9838 100.234 71.8339C99.3522 70.1218 98.5783 68.3274 97.9473 66.4823Z" stroke="#FAFAF8" stroke-width="14"/>
</svg>
