<svg width="184" height="143" viewBox="0 0 184 143" fill="none" xmlns="http://www.w3.org/2000/svg">
<path fill-rule="evenodd" clip-rule="evenodd" d="M102.989 39.6118C105.597 42.3684 108.452 45.2494 111.824 47.0873C115.802 49.2551 120.344 49.9229 125.872 48.2426L126.41 48.0727C136.642 44.719 145.487 43.1281 152.404 42.9252C152.017 44.3797 151.924 45.9112 152.174 47.4565C153.245 54.0704 160.219 58.4437 167.752 57.2241C168.365 57.1249 168.962 56.9901 169.542 56.8256C169.99 60.8359 170.034 65.5621 169.083 70.2641L168.89 71.1616C167.86 75.638 165.913 79.9567 162.605 83.5922L162.271 83.9526C158.767 87.6542 153.635 90.7885 146.103 92.5336L144.989 92.7866C133.516 95.3341 123.386 95.8793 114.575 96.059C115.571 91.81 116.318 88.1979 116.979 83.9379L117.258 82.0688C117.677 79.1379 117.356 76.6135 116.32 74.5336L116.103 74.1235C114.973 72.1036 113.312 70.8539 111.709 70.0991L111.389 69.9545C109.929 69.3222 108.479 69.0548 107.355 68.9428L106.894 68.9037C106.775 68.8954 106.658 68.8886 106.547 68.8832C106.402 68.7298 106.245 68.5652 106.077 68.393L105.544 67.8569C104.398 66.734 102.66 65.1744 100.86 64.2465C99.6272 63.6109 98.4255 63.0967 97.2021 62.7221C97.8822 62.5003 98.5406 62.2096 99.1699 61.8442C105.329 58.2672 106.742 48.8616 102.989 39.6118ZM159.732 63.2114C158.053 62.7224 155.977 62.8512 153.964 63.2739L153.563 63.3618C151.542 63.8264 149.258 64.6512 146.861 65.8852L146.379 66.1381C141.376 68.8132 135.826 73.3244 131.082 80.2934C130.035 81.8317 130.433 83.9277 131.971 84.975C133.461 85.9893 135.475 85.6471 136.552 84.226L136.652 84.0854C140.641 78.2258 145.195 74.4983 149.162 72.2973L149.947 71.8774C151.765 70.9412 153.417 70.3417 154.782 70.0004L155.35 69.8696C156.081 69.7159 156.682 69.6494 157.139 69.6381L157.44 69.6391C157.529 69.6423 157.604 69.6481 157.668 69.6547C157.788 69.6672 157.844 69.6811 157.849 69.6821C159.579 70.1859 161.388 69.2382 161.973 67.5541L162.025 67.3891C162.546 65.6024 161.519 63.7319 159.732 63.2114Z" fill="#FAFAF8"/>
<path fill-rule="evenodd" clip-rule="evenodd" d="M80.6767 30.0014C81.6992 29.4076 83.6487 29.0883 86.6122 30.5141C89.5358 31.9209 92.7511 34.7812 95.1845 38.9711C97.6176 43.1609 98.5081 47.3705 98.2812 50.6069L98.2265 51.2016C97.8965 54.0756 96.7437 55.4593 95.7851 56.0161L95.5829 56.1235C94.5155 56.6426 92.6291 56.8392 89.8505 55.5024C89.2015 55.1901 88.5399 54.8032 87.874 54.3491C88.866 53.4917 89.7845 52.5503 90.54 51.5356L90.8534 51.0961C91.9024 49.5594 91.507 47.4631 89.9706 46.4135C88.4338 45.3641 86.3367 45.7587 85.287 47.2954C84.7575 48.0706 83.9579 48.8696 83.0048 49.6352C82.3999 48.8381 81.818 47.9766 81.2783 47.0473C79.3799 43.7785 78.4086 40.4701 78.1943 37.6137L78.1611 37.0483C77.9841 32.7113 79.5081 30.6803 80.6767 30.0014Z" fill="#FAFAF8"/>
<path fill-rule="evenodd" clip-rule="evenodd" d="M73.4179 2.17523C76.9666 0.186648 81.4581 1.44785 83.4492 4.99945C85.3765 8.43893 84.2497 12.7613 80.9501 14.8373L80.624 15.0317C80.4878 15.108 80.3434 15.1827 80.1943 15.2592C95.6095 16.0497 103.924 24.9454 109.762 31.1391C113.005 34.5798 114.947 36.5575 116.964 37.6567C118.374 38.4252 120.002 38.8706 123.065 37.8666C135.607 33.7561 146.846 31.8984 155.765 32.1928C157.944 30.7728 160.478 29.771 163.233 29.3246C172.448 27.8325 181.9 33.1385 183.4 42.3998C184.128 46.8939 182.726 51.1719 180.076 54.4897C180.754 59.6736 180.907 65.9799 179.609 72.393C178.346 78.6381 175.661 85.1993 170.55 90.8178C165.399 96.4794 158.165 100.763 148.528 102.996C136.382 105.81 125.663 106.518 116.634 106.754C116.632 107.558 116.65 108.492 116.694 109.548C116.825 112.649 117.146 116.301 117.527 119.855C117.906 123.391 118.335 126.744 118.671 129.215C118.838 130.447 118.982 131.457 119.084 132.158C119.138 132.53 119.174 132.782 119.2 132.959C119.205 132.995 119.21 133.027 119.215 133.059L119.231 133.164C119.232 133.167 119.232 133.171 119.232 133.174L119.241 133.227C119.852 137.25 117.108 139.469 114.062 140.62C111.017 141.771 106.017 142.771 102.017 142.271C98.0166 141.771 95.0166 141.271 91.0019 139.743C86.9872 138.215 83.7281 136.354 83.7607 132.316H83.7587V132.267L83.7597 132.232C83.7599 132.222 83.7596 132.214 83.7597 132.207C83.7598 132.201 83.7606 132.196 83.7607 132.192L83.7636 132.03C83.7659 131.887 83.7691 131.677 83.7734 131.397C83.7818 130.849 83.7931 130.056 83.8056 129.083C83.8305 127.139 83.8588 124.484 83.873 121.637C83.8869 118.838 83.8845 115.948 83.8574 113.387C81.8441 114.055 79.5816 113.843 77.6894 112.683C77.461 115.687 76.9103 118.994 75.873 122.539C73.6057 130.287 68.4215 135.477 61.9199 138.269C55.6786 140.949 48.5023 141.332 41.6874 140.439C28.2107 138.672 13.4536 131.533 4.85247 121.488C0.0530849 115.882 -0.603234 108.932 0.406184 102.689C1.40724 96.4979 4.15043 90.1066 7.42474 84.2123C8.15005 82.9067 8.91254 81.6035 9.70599 80.31C6.45591 80.8192 3.15082 79.0918 1.79583 75.9301C0.256291 72.3371 0.62546 68.7467 2.08782 65.7885C3.40897 63.1165 5.49628 61.1663 7.28509 59.8256C10.8742 57.1359 15.3355 55.3716 18.2773 54.5024C20.101 53.9636 27.128 52.2417 35.539 50.2153C35.2644 49.6685 35.0545 49.0794 34.9208 48.4565L34.8505 48.0834C33.9601 42.5844 34.0624 37.328 35.7704 32.5913C37.5373 27.692 40.8027 23.962 45.1035 21.309C49.7431 18.4472 55.6266 16.8289 62.3574 15.9868C58.5717 14.5643 56.6361 10.3526 58.0312 6.55023L58.1708 6.19769C59.6485 2.7252 63.5269 0.930005 67.1298 2.04828L67.4892 2.17035L67.7656 2.26605C69.141 2.71872 70.4413 2.76483 71.5077 2.64203C72.7003 2.5047 73.4024 2.18206 73.4179 2.17523ZM78.1796 19.2026C64.8116 19.1309 54.1496 20.4286 47.2031 24.7133L46.538 25.1401C43.2698 27.3235 40.8739 30.2307 39.5331 33.9487L39.4052 34.3149C38.1211 38.1229 38.0011 42.5177 38.7988 47.4438C39.0964 49.2807 40.827 50.5282 42.664 50.2309C44.5009 49.9333 45.7493 48.2036 45.4521 46.3666C44.742 41.9812 44.9839 38.7034 45.874 36.2348C46.6835 33.9902 48.1069 32.1948 50.2939 30.7377L50.7411 30.4506C55.4871 27.5232 63.394 26.1062 75.0322 25.9545C72.4618 28.6351 71.2379 32.7212 71.4257 37.3237C71.531 39.9017 72.0807 42.6415 73.082 45.3871C71.693 45.7151 69.7742 46.1695 67.4843 46.7114L59.1308 48.6909C56.0548 49.4211 52.7502 50.2072 49.4072 51.0043L39.4775 53.3793C29.7778 55.7086 21.3486 57.7656 19.4101 58.3383L18.8925 58.4965C16.2317 59.3339 12.5626 60.8691 9.68353 63.0268L9.10931 63.4741C7.77436 64.5561 6.49006 65.91 5.67376 67.561L5.49603 67.9438C4.65133 69.8764 4.50462 72.096 5.47259 74.3549C6.18274 76.0119 8.06425 76.8079 9.73626 76.1899L9.8974 76.1254C11.5544 75.4152 12.3504 73.5338 11.7324 71.8618L11.6679 71.7006C11.4877 71.28 11.5019 70.9791 11.7148 70.5483C11.9588 70.0549 12.4726 69.428 13.3349 68.726L13.7255 68.4203C15.9227 66.7737 19.0632 65.4688 21.3193 64.8022C22.1237 64.5645 24.2649 64.0199 27.2704 63.2778C21.6432 69.8045 15.4751 77.9567 10.9208 86.1547L10.3349 87.226C7.44651 92.5962 5.19459 98.1315 4.35443 103.328L4.27532 103.85C3.49991 109.245 4.24509 114.628 7.89056 118.886C15.7482 128.064 29.5434 134.813 42.207 136.473C48.3746 137.282 54.5694 136.924 59.8349 134.804L60.3417 134.593C65.6622 132.309 69.8583 128.198 71.8486 122.021L72.0341 121.416C73.9934 114.721 74.0592 108.993 73.5536 104.758L73.4452 103.931C73.3366 103.17 73.2092 102.463 73.0751 101.815C72.895 100.284 72.4482 98.7599 71.7656 97.3178C71.7229 97.212 71.6877 97.1223 71.6572 97.0512C71.6357 97.0011 71.616 96.9587 71.6015 96.9262C71.5944 96.9103 71.5882 96.8959 71.5829 96.8842C71.5804 96.8787 71.5782 96.8731 71.5761 96.8686C71.575 96.8664 71.5731 96.8637 71.5722 96.8618L71.5712 96.8578C71.5712 96.8578 71.5653 96.8603 71.5449 96.8696L71.5429 96.8666L71.5693 96.8549C71.4689 96.6392 71.3488 96.4387 71.2118 96.2553C68.209 90.9988 61.9991 87.1732 54.3408 88.811L54.0009 88.9897C39.7773 96.6478 49.2262 117.184 65.8339 114.1C66.1687 113.948 66.4906 113.787 66.8007 113.62C66.569 115.45 66.1793 117.426 65.5654 119.524L65.4404 119.933C64.1 124.111 61.385 126.791 57.746 128.372C58.6338 122.835 53.2334 116.004 46.0097 117.61L45.5449 117.877C40.8978 120.725 40.9833 126.144 43.7831 129.873C43.551 129.847 43.317 129.821 43.0829 129.79C36.2799 128.898 29.1577 126.331 23.1249 122.745C25.9314 123.192 28.9963 123.16 32.2597 122.522L32.915 122.386C54.2225 112.279 41.203 83.1933 17.9814 87.3862C23.543 77.959 31.2151 68.6428 37.1952 62.3373L38.3671 61.1176C38.5637 60.9158 38.7293 60.6942 38.8652 60.4614L50.9706 57.561C57.6516 55.9679 64.179 54.4203 69.0361 53.2709C71.4644 52.6963 73.4752 52.2205 74.8788 51.8891C75.3865 51.7692 75.8152 51.6675 76.1552 51.5873C76.4697 52.0805 76.7945 52.5606 77.1288 53.0268C76.798 53.1541 76.4986 53.2579 76.2382 53.3344C76.1103 53.372 75.9991 53.3998 75.9072 53.4213C74.7073 53.1518 73.4026 53.5496 72.5663 54.5629C71.3821 55.9985 71.5861 58.1226 73.0214 59.3071C73.7155 59.8797 74.4553 60.0719 74.9003 60.1459C75.2557 60.2051 75.5905 60.2163 75.8779 60.2075L76.1484 60.1928C76.6542 60.1552 77.1695 60.0561 77.6581 59.9321L78.1367 59.8012C79.2756 59.4668 80.5857 58.9306 81.914 58.2661C84.1134 60.1411 86.4714 61.5343 88.8232 62.3657C88.6609 62.3943 88.497 62.4217 88.3329 62.4536L88.0029 62.517L87.6923 62.645C83.4968 64.3724 79.9595 66.5743 78.4365 70.2446C76.9139 73.9149 77.8526 77.9735 79.5927 82.1635C80.3936 84.0918 81.0617 85.8006 81.6161 87.3491C83.454 92.482 85.0501 95.6087 86.1562 98.892C83.3889 100.067 80.9311 101.778 78.9111 104.278C77.7415 105.725 77.9658 107.847 79.413 109.017C80.8604 110.187 82.9824 109.961 84.1523 108.514C85.1022 107.339 86.2297 106.41 87.5849 105.674C87.6092 105.933 87.6327 106.197 87.6523 106.467C87.8703 109.477 87.9018 115.872 87.873 121.657L87.8427 125.738C87.8305 127.006 87.8171 128.16 87.8046 129.135L87.7724 131.458L87.7626 132.095L87.7597 132.259L87.7587 132.301V132.316C87.7277 134.118 89.1187 135.615 90.8974 135.736L91.0702 135.744C92.9308 135.776 94.4647 134.292 94.497 132.431L94.498 132.428V132.373L94.5019 132.205L94.5117 131.562L94.5439 129.221C94.5564 128.24 94.5698 127.079 94.582 125.802L94.6122 121.692C94.6389 116.343 94.6181 110.136 94.4169 106.642L94.374 105.981C93.7793 97.7721 90.9207 92.8877 88.4492 86.3979L87.9609 85.0776C87.5099 83.8182 86.9984 82.4811 86.4199 81.0463L85.8183 79.5776C84.2043 75.6912 84.2332 73.8595 84.6611 72.8276C84.9281 72.184 85.5254 71.4297 86.8808 70.5649C87.0549 71.1963 87.2124 71.7804 87.3466 72.2993C87.5346 73.026 87.681 73.621 87.7792 74.0307C87.8283 74.2353 87.8651 74.3949 87.8896 74.5004C87.9017 74.5527 87.9111 74.5922 87.9169 74.6176C87.9198 74.63 87.9225 74.6393 87.9238 74.645C87.9243 74.6475 87.9247 74.6508 87.9247 74.6508C88.3203 76.4097 90.0244 77.5352 91.7812 77.2328L91.9511 77.1996C93.6555 76.8164 94.7654 75.2043 94.5575 73.5063L94.5331 73.3422L94.4999 73.1723L94.499 73.1664L94.497 73.1567C94.495 73.1477 94.4918 73.1344 94.4882 73.1186C94.4807 73.0858 94.47 73.0373 94.456 72.977C94.428 72.8562 94.386 72.6818 94.3329 72.4604C94.2266 72.0167 94.0713 71.3823 93.872 70.6118C93.7317 70.0695 93.5665 69.4577 93.3837 68.7944C93.5279 68.8079 93.6698 68.8252 93.8095 68.8452C94.9634 69.0103 96.183 69.4179 97.7714 70.2368C98.6208 70.6747 99.7584 71.6258 100.825 72.6713C100.976 72.8192 101.121 72.9641 101.257 73.103L100.013 76.9848L99.9638 77.1508C99.5059 78.8738 100.476 80.6714 102.192 81.2221C103.909 81.7725 105.744 80.8742 106.374 79.2065L106.431 79.0424L107.479 75.768C107.897 75.8512 108.318 75.9709 108.709 76.1401C109.408 76.4431 109.906 76.8515 110.222 77.4155C110.537 77.9793 110.879 79.0692 110.586 81.1147L110.398 82.392C109.448 88.6672 108.331 93.3841 106.377 101.273C105.843 103.428 105.824 106.715 105.963 110.001C106.108 113.432 106.455 117.343 106.848 121.001C107.241 124.668 107.684 128.124 108.028 130.661C108.201 131.929 108.348 132.971 108.453 133.697C108.506 134.059 108.548 134.344 108.577 134.538C108.591 134.634 108.603 134.709 108.61 134.76C108.614 134.785 108.617 134.805 108.619 134.818L108.622 134.839C108.893 136.622 110.515 137.865 112.289 137.687L112.461 137.665C114.243 137.394 115.486 135.773 115.308 133.999L115.286 133.828L115.283 133.811C115.281 133.799 115.279 133.781 115.275 133.758L115.243 133.547L115.125 132.731L114.707 129.753C114.453 127.881 114.146 125.506 113.846 122.923L113.55 120.282C113.213 117.138 112.918 113.876 112.758 110.95L112.697 109.717C112.555 106.35 112.649 103.983 112.919 102.893C112.931 102.844 112.943 102.794 112.955 102.746C113.138 102.784 113.326 102.809 113.518 102.817L113.712 102.819C122.907 102.656 133.87 102.155 146.407 99.3754L147.625 99.0991C156.289 97.0916 162.644 93.3592 167.16 88.5912L167.591 88.1264C171.83 83.467 174.223 78.0334 175.457 72.6713L175.688 71.6C177.029 64.974 176.692 58.3891 175.848 53.2143C178.524 50.5991 179.972 47.0514 179.503 43.394L179.451 43.0395C178.38 36.4258 171.405 32.0532 163.873 33.2729L163.38 33.3608C160.931 33.8365 158.742 34.8588 156.955 36.2514L156.231 36.2133C147.845 35.833 136.865 37.5526 124.311 41.6674L123.934 41.7875C120.315 42.8934 117.738 42.5046 115.507 41.4067L115.05 41.1694C112.694 39.8853 110.562 37.7938 107.984 35.0825L106.851 33.8832C100.908 27.5785 93.3106 19.5384 78.873 19.2123L78.1796 19.2026ZM73.2011 100.509C73.2035 100.508 73.207 100.508 73.207 100.508L73.2099 100.506C73.2077 100.507 73.2043 100.508 73.2011 100.509ZM43.5038 89.5678C49.7955 86.5544 45.1954 76.6665 38.121 78.2397L37.8388 78.4008C32.1536 81.823 36.3314 90.6364 43.1708 89.6245L43.5038 89.5678ZM79.9599 6.95551C79.0499 5.33237 76.9964 4.75481 75.373 5.66449L75.1406 5.78363C73.8189 6.40912 70.1718 7.41492 66.1113 5.92523C64.3642 5.28444 62.4272 6.18117 61.7861 7.92816C61.1452 9.67526 62.042 11.6122 63.789 12.2534C70.0866 14.564 75.8337 13.0258 78.4267 11.6723L78.6679 11.5424C80.2912 10.6324 80.8697 8.57895 79.9599 6.95551Z" fill="#FAFAF8"/>
<path fill-rule="evenodd" clip-rule="evenodd" d="M92.1044 0.458437C97.5899 -0.559693 102.949 0.100219 107.819 2.61664L108.289 2.86566L108.744 3.12055C113.116 5.62547 116.648 9.43859 119.466 14.0454L120.038 15.0092C122.072 18.5348 120.862 23.0427 117.337 25.0766C113.81 27.1102 109.303 25.8977 107.27 22.3745C105.219 18.8189 103.118 16.8334 101.236 15.808C99.4607 14.8406 97.413 14.4638 94.7949 14.9496C90.7947 15.6921 86.9468 13.0528 86.2031 9.05023C85.4607 5.049 88.1031 1.20172 92.1044 0.458437ZM106.375 6.37836C102.255 4.13318 97.671 3.49323 92.8339 4.39105C91.0044 4.73094 89.7962 6.49013 90.1357 8.31977C90.465 10.0922 92.1265 11.2807 93.8935 11.0444L94.0644 11.017C97.5101 10.3775 100.502 10.8533 103.15 12.2963C105.847 13.7659 108.426 16.3726 110.735 20.3754C111.636 21.9368 113.598 22.5055 115.185 21.6948L115.338 21.6118C116.95 20.6817 117.503 18.6202 116.573 17.0082C113.83 12.2532 110.447 8.5973 106.375 6.37836Z" fill="#FAFAF8"/>
<path d="M153.877 62.789C155.89 62.3662 157.966 62.2384 159.646 62.7274C161.432 63.248 162.459 65.1184 161.939 66.9052C161.418 68.6917 159.549 69.7173 157.762 69.1972C157.762 69.1972 157.706 69.1828 157.581 69.1698C157.454 69.1567 157.278 69.1486 157.052 69.1542C156.596 69.1654 155.995 69.232 155.263 69.3856C153.798 69.6932 151.939 70.3225 149.861 71.3925C145.717 73.5261 140.82 77.3503 136.566 83.6005C135.518 85.1389 133.423 85.538 131.884 84.4911C130.346 83.4438 129.948 81.347 130.995 79.8085C135.892 72.6147 141.648 68.0401 146.775 65.4003C149.331 64.084 151.76 63.2336 153.877 62.789Z" fill="#1A1A1A"/>
<path fill-rule="evenodd" clip-rule="evenodd" d="M78.093 18.7186C92.9823 18.7985 100.727 26.9944 106.764 33.3993C109.871 36.696 112.27 39.218 114.963 40.6854C117.377 42.0006 120.152 42.5176 124.225 41.1825C136.779 37.0677 147.758 35.349 156.145 35.7294C160.331 35.9193 164.039 36.6395 167.01 37.9765C169.992 39.3186 172.468 41.402 173.635 44.3905C175.31 48.6806 177.883 59.839 175.602 71.1161C174.447 76.8216 172.026 82.6724 167.504 87.6425C162.964 92.6324 156.482 96.5419 147.538 98.6142C134.492 101.637 123.117 102.167 113.625 102.335C113.365 102.339 113.112 102.313 112.867 102.262C112.855 102.31 112.844 102.359 112.832 102.408C112.562 103.498 112.468 105.864 112.611 109.232C112.747 112.457 113.078 116.205 113.463 119.798C113.847 123.383 114.281 126.773 114.62 129.269C114.79 130.516 114.936 131.538 115.038 132.246C115.09 132.6 115.129 132.877 115.156 133.063C115.17 133.156 115.182 133.226 115.189 133.273C115.192 133.297 115.195 133.316 115.196 133.327L115.199 133.343C115.479 135.182 114.214 136.901 112.374 137.181C110.534 137.46 108.815 136.195 108.535 134.355L108.532 134.334C108.53 134.321 108.527 134.301 108.524 134.275C108.516 134.225 108.505 134.15 108.49 134.054C108.462 133.86 108.419 133.576 108.366 133.213C108.261 132.487 108.114 131.446 107.942 130.177C107.597 127.64 107.154 124.183 106.761 120.516C106.369 116.858 106.021 112.948 105.876 109.517C105.737 106.23 105.756 102.943 106.29 100.788C108.375 92.373 109.506 87.5676 110.499 80.6298C110.792 78.5843 110.45 77.4944 110.135 76.9306C109.819 76.3667 109.322 75.9582 108.622 75.6552C108.232 75.486 107.81 75.3673 107.393 75.2841L106.344 78.5585C105.776 80.3304 103.878 81.3062 102.106 80.7382C100.333 80.1698 99.3577 78.2721 99.926 76.4999L101.17 72.619C101.034 72.4801 100.889 72.3344 100.738 72.1864C99.6718 71.1409 98.5341 70.1908 97.6848 69.7528C96.0962 68.9339 94.8768 68.5264 93.7229 68.3612C93.583 68.3412 93.4413 68.324 93.2971 68.3104C93.4799 68.9739 93.6451 69.5855 93.7854 70.1278C93.9847 70.8983 94.1399 71.5318 94.2463 71.9755C94.2994 72.1972 94.3413 72.3722 94.3693 72.4931C94.3833 72.5533 94.3941 72.601 94.4016 72.6337C94.4053 72.6498 94.4083 72.6627 94.4104 72.6718C94.4113 72.6761 94.4117 72.6798 94.4123 72.6825L94.4133 72.6884L94.4465 72.8573C94.7493 74.6145 93.6237 76.3201 91.8645 76.7157C90.049 77.1236 88.2466 75.9822 87.8381 74.1669C87.8381 74.1669 87.8377 74.1636 87.8371 74.161C87.8358 74.1554 87.8332 74.1454 87.8303 74.1327C87.8245 74.1073 87.815 74.0678 87.8029 74.0155C87.7785 73.91 87.7416 73.7511 87.6926 73.5468C87.5944 73.137 87.448 72.5422 87.26 71.8153C87.1257 71.2962 86.9684 70.7118 86.7941 70.08C85.4384 70.9449 84.8415 71.7 84.5744 72.3436C84.1466 73.3757 84.1176 75.2073 85.7316 79.0936C86.5636 81.0968 87.2729 82.9134 87.8742 84.5927C90.443 91.7669 93.653 96.7399 94.2873 105.496C94.5281 108.82 94.554 115.501 94.5256 121.207C94.5112 124.091 94.4824 126.775 94.4572 128.737C94.4447 129.718 94.4335 130.52 94.425 131.077C94.4207 131.355 94.4177 131.572 94.4152 131.72C94.414 131.793 94.412 131.851 94.4113 131.89V131.944L94.4104 131.947C94.3779 133.808 92.8441 135.291 90.9836 135.259C89.1227 135.226 87.6398 133.692 87.6721 131.831V131.817C87.6722 131.808 87.6727 131.794 87.673 131.775C87.6737 131.738 87.6748 131.683 87.676 131.61C87.6784 131.465 87.6815 131.25 87.6857 130.975C87.6942 130.423 87.7055 129.626 87.718 128.651C87.743 126.701 87.7721 124.034 87.7863 121.173C87.8151 115.388 87.7837 108.992 87.5656 105.982C87.5461 105.713 87.5225 105.449 87.4982 105.19C86.143 105.926 85.0156 106.854 84.0656 108.029C82.8958 109.477 80.7739 109.702 79.3264 108.532C77.8791 107.362 77.6547 105.24 78.8244 103.793C80.8444 101.293 83.3023 99.5827 86.0695 98.4081C84.9635 95.1246 83.3674 91.9982 81.5295 86.8651C80.975 85.3166 80.307 83.607 79.5061 81.6786C77.7658 77.4884 76.827 73.4301 78.3498 69.7597C79.8728 66.0893 83.41 63.8885 87.6057 62.161L87.9162 62.0331L88.2463 61.9686C88.4101 61.9368 88.5735 61.9094 88.7355 61.8807C86.3841 61.0494 84.0264 59.6568 81.8273 57.7821C80.4989 58.4467 79.189 58.9828 78.05 59.3173C77.4273 59.5001 76.7362 59.6587 76.0617 59.7089C75.7245 59.7339 75.2876 59.7398 74.8137 59.661C74.3687 59.587 73.6289 59.3957 72.9348 58.8231C71.4993 57.6387 71.2953 55.5146 72.4797 54.079C73.316 53.0653 74.6204 52.6676 75.8205 52.9374C75.9125 52.9158 76.0235 52.8871 76.1516 52.8495C76.412 52.773 76.7114 52.6701 77.0422 52.5429C76.7078 52.0766 76.3831 51.5966 76.0686 51.1034C75.7285 51.1836 75.2999 51.2853 74.7922 51.4052C73.3885 51.7366 71.3778 52.2124 68.9494 52.787C64.0923 53.9364 57.5651 55.484 50.884 57.077C46.773 58.0573 42.6248 59.0517 38.7785 59.9774C38.6427 60.2103 38.4771 60.4309 38.2805 60.6327C32.1601 66.9168 23.8271 76.8464 17.8947 86.9022C41.1164 82.7093 54.1357 111.794 32.8283 121.901C29.3197 122.669 26.0326 122.737 23.0393 122.261C29.0719 125.846 36.1935 128.414 42.9963 129.306C43.2301 129.336 43.4636 129.362 43.6955 129.389C40.8056 125.538 40.8085 119.888 45.923 117.125C53.147 115.519 58.5477 122.351 57.6594 127.888C61.416 126.257 64.1871 123.452 65.4787 119.039C66.0927 116.941 66.4824 114.966 66.7141 113.136C66.404 113.303 66.0821 113.463 65.7473 113.615C49.0087 116.723 39.5418 95.8389 54.2541 88.327C61.9128 86.6891 68.1225 90.5145 71.1252 95.7714C71.2622 95.9548 71.3823 96.1551 71.4826 96.371L71.4572 96.3817L71.4582 96.3856C71.4811 96.3753 71.4846 96.3739 71.4846 96.3739L71.4855 96.3768C71.4865 96.3789 71.4884 96.3814 71.4895 96.3837C71.4916 96.3883 71.4937 96.3936 71.4963 96.3993C71.5017 96.4111 71.5076 96.4261 71.5148 96.4423C71.5294 96.4748 71.549 96.5163 71.5705 96.5663C71.6014 96.6383 71.6375 96.7291 71.6809 96.8368C72.3627 98.2781 72.8086 99.8008 72.9885 101.331C73.1225 101.98 73.2499 102.686 73.3586 103.447C73.9728 107.75 74.0374 113.79 71.9475 120.932C70.0411 127.446 65.7474 131.751 60.2551 134.109C54.8825 136.416 48.487 136.824 42.1203 135.989C29.4567 134.329 15.6616 127.579 7.80391 118.401C4.04077 114.006 3.36742 108.412 4.26777 102.843C5.16397 97.3002 7.66643 91.3722 10.8342 85.6698C15.3886 77.4714 21.5573 69.3198 27.1848 62.7929C24.1785 63.5352 22.0371 64.0806 21.2326 64.3182C18.9765 64.9849 15.836 66.2897 13.6389 67.9364C12.5376 68.7618 11.9069 69.5005 11.6281 70.0643C11.4153 70.4952 11.401 70.796 11.5812 71.2167C12.3137 72.9271 11.5211 74.9085 9.81074 75.6415C8.10031 76.3743 6.11916 75.5812 5.38594 73.871C4.35337 71.4615 4.5888 69.0965 5.58711 67.077C6.52003 65.1901 8.06425 63.6915 9.59687 62.5429C12.6677 60.2414 16.6371 58.6481 19.3234 57.8544C21.9079 57.0908 36.0314 53.6891 49.3205 50.5204C56.0066 48.9261 62.5383 47.3773 67.3977 46.2274C69.6876 45.6856 71.6063 45.2312 72.9953 44.9032C71.9938 42.1572 71.4443 39.4171 71.3391 36.8388C71.1512 32.236 72.3749 28.1502 74.9455 25.4696C63.3071 25.6213 55.4005 27.0382 50.6545 29.9657C48.2119 31.4725 46.6508 33.3563 45.7873 35.7509C44.8972 38.2194 44.6553 41.4963 45.3654 45.8817C45.6627 47.7188 44.4144 49.4494 42.5773 49.747C40.7403 50.0444 39.0099 48.7967 38.7121 46.9599C37.8887 41.875 38.0433 37.3564 39.4465 33.4647C40.8766 29.4988 43.507 26.4559 47.1164 24.2294C54.063 19.9445 64.7246 18.647 78.093 18.7186ZM102.903 39.1278C106.655 48.3775 105.242 57.7834 99.0832 61.3602C98.4539 61.7257 97.7956 62.0163 97.1154 62.2382C98.3389 62.6128 99.5406 63.1269 100.774 63.7626C102.573 64.6906 104.312 66.2501 105.457 67.3729C105.832 67.7406 106.17 68.0915 106.46 68.3983C106.572 68.4037 106.688 68.4105 106.808 68.4188C107.978 68.5011 109.633 68.7478 111.302 69.4706C113.001 70.2068 114.811 71.4839 116.017 73.6386C117.223 75.794 117.619 78.4581 117.171 81.5849C116.44 86.6949 115.627 90.7182 114.488 95.5741C123.584 95.3886 134.084 94.8135 146.017 92.0487C153.792 90.2473 159.009 86.9654 162.519 83.1073C166.047 79.2293 168.026 74.5742 168.996 69.7792C170.963 60.0559 168.679 50.2311 167.356 46.8417C167.024 45.991 166.175 44.9911 164.243 44.122C162.301 43.2479 159.505 42.6281 155.839 42.4618C148.518 42.1298 138.384 43.6346 126.323 47.5878C120.551 49.4797 115.844 48.8411 111.738 46.6034C108.365 44.7655 105.511 41.8845 102.903 39.1278ZM86.5256 30.0292C83.5618 28.6032 81.6126 28.9236 80.59 29.5175C79.4215 30.1964 77.8974 32.2271 78.0744 36.5643C78.1962 39.5446 79.1667 43.0757 81.1916 46.5624C81.7314 47.4918 82.3122 48.3541 82.9172 49.1513C83.8708 48.3854 84.6707 47.586 85.2004 46.8104C86.2501 45.2739 88.3472 44.8791 89.884 45.9286C91.4207 46.9782 91.8162 49.0753 90.7668 50.6122C89.9583 51.796 88.9205 52.8851 87.7863 53.8651C88.4526 54.3195 89.1146 54.706 89.7639 55.0184C92.7272 56.4442 94.6758 56.1258 95.6984 55.5321C96.721 54.9383 97.9644 53.4029 98.1945 50.122C98.4215 46.8855 97.5311 42.6761 95.0979 38.4862C92.6644 34.2962 89.4493 31.4359 86.5256 30.0292Z" fill="#1A1A1A"/>
<path d="M38.0344 77.7558C45.1088 76.1825 49.709 86.0705 43.4172 89.0839C36.2706 90.4598 31.8361 81.1049 38.0344 77.7558Z" fill="#1A1A1A"/>
<path d="M92.7473 3.90614C97.5844 3.0083 102.168 3.64825 106.288 5.89345C110.36 8.11239 113.743 11.7683 116.487 16.5233C117.417 18.1354 116.863 20.1968 115.251 21.1268C113.639 22.0564 111.579 21.5033 110.649 19.8915C108.339 15.8883 105.76 13.2811 103.064 11.8114C100.416 10.3684 97.4234 9.89262 93.9777 10.5321C92.148 10.8717 90.3889 9.66453 90.049 7.83485C89.7095 6.00511 90.9176 4.24589 92.7473 3.90614Z" fill="#1A1A1A"/>
<path d="M75.2863 5.17958C76.9098 4.26985 78.9633 4.84826 79.8732 6.47157C80.7827 8.09495 80.2044 10.1476 78.5813 11.0575C76.1177 12.4381 70.2034 14.1537 63.7023 11.7684C61.9553 11.1273 61.0584 9.19042 61.6994 7.44325C62.3406 5.69631 64.2775 4.79938 66.0246 5.44032C70.356 7.02942 74.2163 5.77904 75.2863 5.17958Z" fill="#1A1A1A"/>
</svg>
